<mxfile host="drawio-plugin" modified="2023-12-04T05:48:09.865Z" agent="5.0 (X11; Linux x86_64) AppleWebKit/537.36 (KHTML, like Gecko) Chrome/111.0.0.0 Safari/537.36" etag="-R2OlnRUuOn4cp65n0oV" version="20.5.3" type="embed" pages="7"><diagram name="Login" id="SbS-veY6j-yTCXH_E71-"><mxGraphModel dx="894" dy="446" grid="1" gridSize="10" guides="1" tooltips="1" connect="1" arrows="1" fold="1" page="1" pageScale="1" pageWidth="827" pageHeight="1169" math="0" shadow="0"><root><mxCell id="0"/><mxCell id="1" parent="0"/><mxCell id="PvhkHCsNv4xEgW8MnxlI-2" value="" style="shape=umlLifeline;perimeter=lifelinePerimeter;whiteSpace=wrap;html=1;container=1;dropTarget=0;collapsible=0;recursiveResize=0;outlineConnect=0;portConstraint=eastwest;newEdgeStyle={&quot;edgeStyle&quot;:&quot;elbowEdgeStyle&quot;,&quot;elbow&quot;:&quot;vertical&quot;,&quot;curved&quot;:0,&quot;rounded&quot;:0};participant=umlActor;fontSize=13;" parent="1" vertex="1"><mxGeometry x="80" y="160" width="20" height="590" as="geometry"/></mxCell><mxCell id="PvhkHCsNv4xEgW8MnxlI-3" value="Client(ReactJs)" style="shape=umlLifeline;perimeter=lifelinePerimeter;whiteSpace=wrap;html=1;container=1;dropTarget=0;collapsible=0;recursiveResize=0;outlineConnect=0;portConstraint=eastwest;newEdgeStyle={&quot;edgeStyle&quot;:&quot;elbowEdgeStyle&quot;,&quot;elbow&quot;:&quot;vertical&quot;,&quot;curved&quot;:0,&quot;rounded&quot;:0};fontSize=13;" parent="1" vertex="1"><mxGeometry x="328" y="170" width="100" height="580" as="geometry"/></mxCell><mxCell id="PvhkHCsNv4xEgW8MnxlI-5" value="&lt;font style=&quot;font-size: 13px;&quot;&gt;Aws (Amplify,Cognito)&lt;/font&gt;" style="ellipse;shape=cloud;whiteSpace=wrap;html=1;fontSize=13;" parent="1" vertex="1"><mxGeometry x="635" y="130" width="180" height="90" as="geometry"/></mxCell><mxCell id="PvhkHCsNv4xEgW8MnxlI-6" value="User" style="text;html=1;align=center;verticalAlign=middle;resizable=0;points=[];autosize=1;strokeColor=none;fillColor=none;fontSize=13;" parent="1" vertex="1"><mxGeometry x="10" y="170" width="50" height="30" as="geometry"/></mxCell><mxCell id="PvhkHCsNv4xEgW8MnxlI-9" value="" style="endArrow=classic;html=1;rounded=0;fontSize=13;" parent="1" edge="1"><mxGeometry width="50" height="50" relative="1" as="geometry"><mxPoint x="90" y="256" as="sourcePoint"/><mxPoint x="377.5" y="256" as="targetPoint"/></mxGeometry></mxCell><mxCell id="PvhkHCsNv4xEgW8MnxlI-10" value="Login" style="edgeLabel;html=1;align=center;verticalAlign=middle;resizable=0;points=[];fontSize=13;" parent="PvhkHCsNv4xEgW8MnxlI-9" vertex="1" connectable="0"><mxGeometry x="-0.0135" y="2" relative="1" as="geometry"><mxPoint x="-60" as="offset"/></mxGeometry></mxCell><mxCell id="PvhkHCsNv4xEgW8MnxlI-12" value="" style="endArrow=none;dashed=1;html=1;dashPattern=1 3;strokeWidth=2;rounded=0;entryX=0.55;entryY=0.95;entryDx=0;entryDy=0;entryPerimeter=0;fontSize=13;" parent="1" target="PvhkHCsNv4xEgW8MnxlI-5" edge="1"><mxGeometry width="50" height="50" relative="1" as="geometry"><mxPoint x="734" y="750" as="sourcePoint"/><mxPoint x="930" y="230" as="targetPoint"/></mxGeometry></mxCell><mxCell id="PvhkHCsNv4xEgW8MnxlI-13" value="" style="endArrow=classic;html=1;rounded=0;fontSize=13;" parent="1" edge="1"><mxGeometry width="50" height="50" relative="1" as="geometry"><mxPoint x="380" y="310" as="sourcePoint"/><mxPoint x="730" y="310" as="targetPoint"/></mxGeometry></mxCell><mxCell id="PvhkHCsNv4xEgW8MnxlI-18" value="Login using aws-amplify" style="edgeLabel;html=1;align=center;verticalAlign=middle;resizable=0;points=[];fontSize=13;" parent="PvhkHCsNv4xEgW8MnxlI-13" vertex="1" connectable="0"><mxGeometry x="-0.0037" y="2" relative="1" as="geometry"><mxPoint x="-62" as="offset"/></mxGeometry></mxCell><mxCell id="PvhkHCsNv4xEgW8MnxlI-20" value="" style="endArrow=classic;html=1;rounded=0;fontSize=13;" parent="1" edge="1"><mxGeometry width="50" height="50" relative="1" as="geometry"><mxPoint x="730" y="432" as="sourcePoint"/><mxPoint x="380" y="432" as="targetPoint"/></mxGeometry></mxCell><mxCell id="PvhkHCsNv4xEgW8MnxlI-21" value="Success Response with token" style="edgeLabel;html=1;align=center;verticalAlign=middle;resizable=0;points=[];fontSize=13;" parent="PvhkHCsNv4xEgW8MnxlI-20" vertex="1" connectable="0"><mxGeometry x="-0.0037" y="2" relative="1" as="geometry"><mxPoint x="34" y="-2" as="offset"/></mxGeometry></mxCell><mxCell id="PvhkHCsNv4xEgW8MnxlI-22" value="" style="endArrow=classic;html=1;rounded=0;fontSize=13;" parent="1" edge="1"><mxGeometry width="50" height="50" relative="1" as="geometry"><mxPoint x="377.5" y="491" as="sourcePoint"/><mxPoint x="89.5" y="491" as="targetPoint"/></mxGeometry></mxCell><mxCell id="PvhkHCsNv4xEgW8MnxlI-25" value="Navigate to home page" style="edgeLabel;html=1;align=center;verticalAlign=middle;resizable=0;points=[];fontSize=13;" parent="PvhkHCsNv4xEgW8MnxlI-22" vertex="1" connectable="0"><mxGeometry x="-0.0173" y="-1" relative="1" as="geometry"><mxPoint x="-19" as="offset"/></mxGeometry></mxCell><mxCell id="PvhkHCsNv4xEgW8MnxlI-26" value="&lt;h1 style=&quot;&quot;&gt;&lt;font style=&quot;font-size: 22px;&quot;&gt;Login&lt;/font&gt;&lt;/h1&gt;" style="text;html=1;strokeColor=none;fillColor=none;align=center;verticalAlign=middle;whiteSpace=wrap;rounded=0;fontSize=13;" parent="1" vertex="1"><mxGeometry x="480" y="60" width="60" height="30" as="geometry"/></mxCell><mxCell id="PvhkHCsNv4xEgW8MnxlI-28" value="Alternative" style="shape=umlFrame;whiteSpace=wrap;html=1;pointerEvents=0;fontSize=13;" parent="1" vertex="1"><mxGeometry x="290" y="360" width="540" height="350" as="geometry"/></mxCell><mxCell id="PvhkHCsNv4xEgW8MnxlI-29" value="" style="endArrow=none;dashed=1;html=1;dashPattern=1 3;strokeWidth=2;rounded=0;entryX=1;entryY=0.515;entryDx=0;entryDy=0;entryPerimeter=0;exitX=-0.006;exitY=0.512;exitDx=0;exitDy=0;exitPerimeter=0;fontSize=13;" parent="1" edge="1"><mxGeometry width="50" height="50" relative="1" as="geometry"><mxPoint x="286.76" y="543.1199999999999" as="sourcePoint"/><mxPoint x="830" y="543.9000000000001" as="targetPoint"/></mxGeometry></mxCell><mxCell id="PvhkHCsNv4xEgW8MnxlI-31" value="" style="endArrow=classic;html=1;rounded=0;fontSize=13;" parent="1" edge="1"><mxGeometry width="50" height="50" relative="1" as="geometry"><mxPoint x="730" y="605" as="sourcePoint"/><mxPoint x="380" y="606" as="targetPoint"/></mxGeometry></mxCell><mxCell id="PvhkHCsNv4xEgW8MnxlI-32" value="Error Response with message" style="edgeLabel;html=1;align=center;verticalAlign=middle;resizable=0;points=[];fontSize=13;" parent="PvhkHCsNv4xEgW8MnxlI-31" vertex="1" connectable="0"><mxGeometry x="-0.0037" y="2" relative="1" as="geometry"><mxPoint x="33" y="-2" as="offset"/></mxGeometry></mxCell><mxCell id="PvhkHCsNv4xEgW8MnxlI-33" value="" style="endArrow=classic;html=1;rounded=0;fontSize=13;" parent="1" edge="1"><mxGeometry width="50" height="50" relative="1" as="geometry"><mxPoint x="380" y="662" as="sourcePoint"/><mxPoint x="89.5" y="662" as="targetPoint"/></mxGeometry></mxCell><mxCell id="PvhkHCsNv4xEgW8MnxlI-37" value="Display Error message" style="edgeLabel;html=1;align=center;verticalAlign=middle;resizable=0;points=[];fontSize=13;" parent="PvhkHCsNv4xEgW8MnxlI-33" vertex="1" connectable="0"><mxGeometry x="0.0902" y="1" relative="1" as="geometry"><mxPoint x="-2" as="offset"/></mxGeometry></mxCell><mxCell id="TfZkuck44QpqUgxy9aus-3" value="" style="shape=umlLifeline;perimeter=lifelinePerimeter;whiteSpace=wrap;html=1;container=1;dropTarget=0;collapsible=0;recursiveResize=0;outlineConnect=0;portConstraint=eastwest;newEdgeStyle={&quot;edgeStyle&quot;:&quot;elbowEdgeStyle&quot;,&quot;elbow&quot;:&quot;vertical&quot;,&quot;curved&quot;:0,&quot;rounded&quot;:0};participant=umlActor;fontSize=13;" parent="1" vertex="1"><mxGeometry x="80" y="919" width="20" height="1281" as="geometry"/></mxCell><mxCell id="TfZkuck44QpqUgxy9aus-4" value="Client(ReactJs)" style="shape=umlLifeline;perimeter=lifelinePerimeter;whiteSpace=wrap;html=1;container=1;dropTarget=0;collapsible=0;recursiveResize=0;outlineConnect=0;portConstraint=eastwest;newEdgeStyle={&quot;edgeStyle&quot;:&quot;elbowEdgeStyle&quot;,&quot;elbow&quot;:&quot;vertical&quot;,&quot;curved&quot;:0,&quot;rounded&quot;:0};fontSize=13;" parent="1" vertex="1"><mxGeometry x="330" y="929" width="100" height="1261" as="geometry"/></mxCell><mxCell id="TfZkuck44QpqUgxy9aus-5" value="Server (Java Spring)" style="shape=umlLifeline;perimeter=lifelinePerimeter;whiteSpace=wrap;html=1;container=1;dropTarget=0;collapsible=0;recursiveResize=0;outlineConnect=0;portConstraint=eastwest;newEdgeStyle={&quot;edgeStyle&quot;:&quot;elbowEdgeStyle&quot;,&quot;elbow&quot;:&quot;vertical&quot;,&quot;curved&quot;:0,&quot;rounded&quot;:0};gradientColor=none;fontSize=13;" parent="1" vertex="1"><mxGeometry x="620" y="929" width="100" height="1271" as="geometry"/></mxCell><mxCell id="TfZkuck44QpqUgxy9aus-6" value="&lt;font style=&quot;font-size: 13px;&quot;&gt;Aws (Amplify,Cognito)&lt;/font&gt;" style="ellipse;shape=cloud;whiteSpace=wrap;html=1;fontSize=13;" parent="1" vertex="1"><mxGeometry x="910" y="889" width="180" height="90" as="geometry"/></mxCell><mxCell id="TfZkuck44QpqUgxy9aus-7" value="User" style="text;html=1;align=center;verticalAlign=middle;resizable=0;points=[];autosize=1;strokeColor=none;fillColor=none;fontSize=13;" parent="1" vertex="1"><mxGeometry x="10" y="929" width="50" height="30" as="geometry"/></mxCell><mxCell id="TfZkuck44QpqUgxy9aus-8" value="" style="endArrow=classic;html=1;rounded=0;fontSize=13;" parent="1" edge="1"><mxGeometry width="50" height="50" relative="1" as="geometry"><mxPoint x="90" y="1014" as="sourcePoint"/><mxPoint x="379.5" y="1014" as="targetPoint"/></mxGeometry></mxCell><mxCell id="TfZkuck44QpqUgxy9aus-26" value="Login with temporary password" style="edgeLabel;html=1;align=center;verticalAlign=middle;resizable=0;points=[];fontSize=13;" parent="TfZkuck44QpqUgxy9aus-8" vertex="1" connectable="0"><mxGeometry x="-0.0289" y="-1" relative="1" as="geometry"><mxPoint x="-14" y="-2" as="offset"/></mxGeometry></mxCell><mxCell id="TfZkuck44QpqUgxy9aus-10" value="" style="endArrow=none;dashed=1;html=1;dashPattern=1 3;strokeWidth=2;rounded=0;entryX=0.55;entryY=0.95;entryDx=0;entryDy=0;entryPerimeter=0;fontSize=13;" parent="1" target="TfZkuck44QpqUgxy9aus-6" edge="1"><mxGeometry width="50" height="50" relative="1" as="geometry"><mxPoint x="1010" y="2210" as="sourcePoint"/><mxPoint x="930" y="989" as="targetPoint"/></mxGeometry></mxCell><mxCell id="TfZkuck44QpqUgxy9aus-11" value="" style="endArrow=classic;html=1;rounded=0;fontSize=13;" parent="1" edge="1"><mxGeometry width="50" height="50" relative="1" as="geometry"><mxPoint x="379.5" y="1084" as="sourcePoint"/><mxPoint x="1010" y="1084" as="targetPoint"/></mxGeometry></mxCell><mxCell id="TfZkuck44QpqUgxy9aus-12" value="Login using aws-amplify" style="edgeLabel;html=1;align=center;verticalAlign=middle;resizable=0;points=[];fontSize=13;" parent="TfZkuck44QpqUgxy9aus-11" vertex="1" connectable="0"><mxGeometry x="-0.0037" y="2" relative="1" as="geometry"><mxPoint x="-177" as="offset"/></mxGeometry></mxCell><mxCell id="TfZkuck44QpqUgxy9aus-13" value="" style="endArrow=classic;html=1;rounded=0;fontSize=13;" parent="1" edge="1"><mxGeometry width="50" height="50" relative="1" as="geometry"><mxPoint x="1010" y="1230" as="sourcePoint"/><mxPoint x="380" y="1230" as="targetPoint"/></mxGeometry></mxCell><mxCell id="TfZkuck44QpqUgxy9aus-14" value="Success Response with user status&lt;br style=&quot;font-size: 13px;&quot;&gt;(REQUIRE_NEW_PASSWORD)" style="edgeLabel;html=1;align=center;verticalAlign=middle;resizable=0;points=[];fontSize=13;" parent="TfZkuck44QpqUgxy9aus-13" vertex="1" connectable="0"><mxGeometry x="-0.0037" y="2" relative="1" as="geometry"><mxPoint x="-150" y="-2" as="offset"/></mxGeometry></mxCell><mxCell id="TfZkuck44QpqUgxy9aus-15" value="" style="endArrow=classic;html=1;rounded=0;fontSize=13;" parent="1" edge="1"><mxGeometry width="50" height="50" relative="1" as="geometry"><mxPoint x="379.5" y="1290" as="sourcePoint"/><mxPoint x="89.5" y="1290" as="targetPoint"/></mxGeometry></mxCell><mxCell id="TfZkuck44QpqUgxy9aus-16" value="Navigate to Account setup page" style="edgeLabel;html=1;align=center;verticalAlign=middle;resizable=0;points=[];fontSize=13;" parent="TfZkuck44QpqUgxy9aus-15" vertex="1" connectable="0"><mxGeometry x="-0.0173" y="-1" relative="1" as="geometry"><mxPoint x="-21" as="offset"/></mxGeometry></mxCell><mxCell id="TfZkuck44QpqUgxy9aus-17" value="Alternative" style="shape=umlFrame;whiteSpace=wrap;html=1;pointerEvents=0;fontSize=13;" parent="1" vertex="1"><mxGeometry x="300" y="1137" width="800" height="993" as="geometry"/></mxCell><mxCell id="TfZkuck44QpqUgxy9aus-18" value="" style="endArrow=none;dashed=1;html=1;dashPattern=1 3;strokeWidth=2;rounded=0;exitX=-0.002;exitY=0.691;exitDx=0;exitDy=0;exitPerimeter=0;entryX=1;entryY=0.713;entryDx=0;entryDy=0;entryPerimeter=0;fontSize=13;" parent="1" edge="1"><mxGeometry width="50" height="50" relative="1" as="geometry"><mxPoint x="298.4000000000001" y="1895.809" as="sourcePoint"/><mxPoint x="1100" y="1896.7869999999998" as="targetPoint"/><Array as="points"><mxPoint x="580" y="1897"/></Array></mxGeometry></mxCell><mxCell id="TfZkuck44QpqUgxy9aus-19" value="" style="endArrow=classic;html=1;rounded=0;fontSize=13;" parent="1" edge="1"><mxGeometry width="50" height="50" relative="1" as="geometry"><mxPoint x="1010" y="1942" as="sourcePoint"/><mxPoint x="669.5" y="1942" as="targetPoint"/></mxGeometry></mxCell><mxCell id="TfZkuck44QpqUgxy9aus-20" value="Error Response with message" style="edgeLabel;html=1;align=center;verticalAlign=middle;resizable=0;points=[];fontSize=13;" parent="TfZkuck44QpqUgxy9aus-19" vertex="1" connectable="0"><mxGeometry x="-0.0037" y="2" relative="1" as="geometry"><mxPoint x="-20" y="-2" as="offset"/></mxGeometry></mxCell><mxCell id="TfZkuck44QpqUgxy9aus-21" value="" style="endArrow=classic;html=1;rounded=0;fontSize=13;" parent="1" edge="1"><mxGeometry width="50" height="50" relative="1" as="geometry"><mxPoint x="379.5" y="2077" as="sourcePoint"/><mxPoint x="89.5" y="2077" as="targetPoint"/></mxGeometry></mxCell><mxCell id="TfZkuck44QpqUgxy9aus-22" value="Display Error message" style="edgeLabel;html=1;align=center;verticalAlign=middle;resizable=0;points=[];fontSize=13;" parent="TfZkuck44QpqUgxy9aus-21" vertex="1" connectable="0"><mxGeometry x="0.0902" y="1" relative="1" as="geometry"><mxPoint x="-8" as="offset"/></mxGeometry></mxCell><mxCell id="TfZkuck44QpqUgxy9aus-23" value="&lt;font size=&quot;1&quot; style=&quot;&quot;&gt;&lt;b style=&quot;font-size: 22px;&quot;&gt;Account setup for Invited User&lt;/b&gt;&lt;/font&gt;" style="text;html=1;align=center;verticalAlign=middle;resizable=0;points=[];autosize=1;strokeColor=none;fillColor=none;fontSize=13;" parent="1" vertex="1"><mxGeometry x="325" y="820" width="340" height="40" as="geometry"/></mxCell><mxCell id="TfZkuck44QpqUgxy9aus-27" value="" style="endArrow=classic;html=1;rounded=0;fontSize=13;" parent="1" edge="1"><mxGeometry width="50" height="50" relative="1" as="geometry"><mxPoint x="89.5" y="1360.5" as="sourcePoint"/><mxPoint x="379.5" y="1360.5" as="targetPoint"/></mxGeometry></mxCell><mxCell id="TfZkuck44QpqUgxy9aus-28" value="Account setup with user data" style="edgeLabel;html=1;align=center;verticalAlign=middle;resizable=0;points=[];fontSize=13;" parent="TfZkuck44QpqUgxy9aus-27" vertex="1" connectable="0"><mxGeometry x="-0.0289" y="-1" relative="1" as="geometry"><mxPoint x="-20" as="offset"/></mxGeometry></mxCell><mxCell id="TfZkuck44QpqUgxy9aus-29" value="" style="endArrow=classic;html=1;rounded=0;fontSize=13;" parent="1" edge="1"><mxGeometry width="50" height="50" relative="1" as="geometry"><mxPoint x="380" y="1425" as="sourcePoint"/><mxPoint x="669.5" y="1425" as="targetPoint"/></mxGeometry></mxCell><mxCell id="TfZkuck44QpqUgxy9aus-31" value="Account setup request" style="edgeLabel;html=1;align=center;verticalAlign=middle;resizable=0;points=[];fontSize=13;" parent="TfZkuck44QpqUgxy9aus-29" vertex="1" connectable="0"><mxGeometry x="-0.2917" relative="1" as="geometry"><mxPoint x="20" as="offset"/></mxGeometry></mxCell><mxCell id="TfZkuck44QpqUgxy9aus-32" value="" style="endArrow=classic;html=1;rounded=0;fontSize=13;" parent="1" edge="1"><mxGeometry width="50" height="50" relative="1" as="geometry"><mxPoint x="669.5" y="1489" as="sourcePoint"/><mxPoint x="1010" y="1489" as="targetPoint"/></mxGeometry></mxCell><mxCell id="TfZkuck44QpqUgxy9aus-33" value="Initiate an account setup request&lt;br&gt;&amp;nbsp;and update&amp;nbsp;a user in an AWS Cognito&lt;br&gt;&amp;nbsp;User Pool using AWS SDKs" style="edgeLabel;html=1;align=center;verticalAlign=middle;resizable=0;points=[];fontSize=13;" parent="TfZkuck44QpqUgxy9aus-32" vertex="1" connectable="0"><mxGeometry x="-0.2917" relative="1" as="geometry"><mxPoint x="52" as="offset"/></mxGeometry></mxCell><mxCell id="DmsyNp9IoiCSTCZQ9Gf0-1" value="" style="endArrow=classic;html=1;rounded=0;fontSize=13;" parent="1" edge="1"><mxGeometry width="50" height="50" relative="1" as="geometry"><mxPoint x="1010" y="1557" as="sourcePoint"/><mxPoint x="669.5" y="1557" as="targetPoint"/></mxGeometry></mxCell><mxCell id="DmsyNp9IoiCSTCZQ9Gf0-2" value="Success Response" style="edgeLabel;html=1;align=center;verticalAlign=middle;resizable=0;points=[];fontSize=13;" parent="DmsyNp9IoiCSTCZQ9Gf0-1" vertex="1" connectable="0"><mxGeometry x="-0.2917" relative="1" as="geometry"><mxPoint x="-82" as="offset"/></mxGeometry></mxCell><mxCell id="DmsyNp9IoiCSTCZQ9Gf0-3" value="" style="endArrow=classic;html=1;rounded=0;fontSize=13;" parent="1" edge="1"><mxGeometry width="50" height="50" relative="1" as="geometry"><mxPoint x="670.5" y="1777" as="sourcePoint"/><mxPoint x="381" y="1777" as="targetPoint"/></mxGeometry></mxCell><mxCell id="DmsyNp9IoiCSTCZQ9Gf0-4" value="Success Response" style="edgeLabel;html=1;align=center;verticalAlign=middle;resizable=0;points=[];fontSize=13;" parent="DmsyNp9IoiCSTCZQ9Gf0-3" vertex="1" connectable="0"><mxGeometry x="-0.2917" relative="1" as="geometry"><mxPoint x="-74" as="offset"/></mxGeometry></mxCell><mxCell id="DmsyNp9IoiCSTCZQ9Gf0-5" value="" style="endArrow=classic;html=1;rounded=0;exitX=0.5;exitY=0.667;exitDx=0;exitDy=0;exitPerimeter=0;fontSize=13;" parent="1" edge="1"><mxGeometry width="50" height="50" relative="1" as="geometry"><mxPoint x="380" y="1847.527" as="sourcePoint"/><mxPoint x="89.5" y="1847.527" as="targetPoint"/></mxGeometry></mxCell><mxCell id="DmsyNp9IoiCSTCZQ9Gf0-6" value="Navigate to Login page" style="edgeLabel;html=1;align=center;verticalAlign=middle;resizable=0;points=[];fontSize=13;" parent="DmsyNp9IoiCSTCZQ9Gf0-5" vertex="1" connectable="0"><mxGeometry x="-0.2917" relative="1" as="geometry"><mxPoint x="-57" as="offset"/></mxGeometry></mxCell><mxCell id="hSDC_ExyKONVM4J4ioTI-1" value="&lt;font style=&quot;font-size: 13px;&quot;&gt;if(status ==&amp;nbsp;&lt;br style=&quot;font-size: 13px;&quot;&gt;REQUIRE_NEW_PASSWORD)&lt;/font&gt;" style="text;html=1;align=center;verticalAlign=middle;resizable=0;points=[];autosize=1;strokeColor=none;fillColor=none;fontSize=13;" parent="1" vertex="1"><mxGeometry x="235" y="1167" width="210" height="40" as="geometry"/></mxCell><mxCell id="ZWSx12UyArkhwDHrH3PE-1" value="if(Valid User)" style="text;html=1;align=center;verticalAlign=middle;resizable=0;points=[];autosize=1;strokeColor=none;fillColor=none;fontSize=13;" parent="1" vertex="1"><mxGeometry x="285" y="390" width="100" height="30" as="geometry"/></mxCell><mxCell id="ZWSx12UyArkhwDHrH3PE-2" value="" style="endArrow=classic;html=1;rounded=0;fontSize=13;" parent="1" edge="1"><mxGeometry width="50" height="50" relative="1" as="geometry"><mxPoint x="668.5" y="2010" as="sourcePoint"/><mxPoint x="379" y="2010" as="targetPoint"/></mxGeometry></mxCell><mxCell id="ZWSx12UyArkhwDHrH3PE-3" value="Error Response" style="edgeLabel;html=1;align=center;verticalAlign=middle;resizable=0;points=[];fontSize=13;" parent="ZWSx12UyArkhwDHrH3PE-2" vertex="1" connectable="0"><mxGeometry x="-0.2917" relative="1" as="geometry"><mxPoint x="-74" as="offset"/></mxGeometry></mxCell><mxCell id="LMqbLxut6mDjRL3H9NC4-1" value="Save user data in the &quot;User&quot;&lt;br&gt;&amp;nbsp;table in the database" style="endArrow=classic;html=1;rounded=0;fontSize=13;" parent="1" edge="1"><mxGeometry x="-0.4925" width="50" height="50" relative="1" as="geometry"><mxPoint x="670" y="1627" as="sourcePoint"/><mxPoint x="1340" y="1627" as="targetPoint"/><mxPoint as="offset"/></mxGeometry></mxCell><mxCell id="LMqbLxut6mDjRL3H9NC4-2" value="Database" style="shape=datastore;whiteSpace=wrap;html=1;fontSize=13;" parent="1" vertex="1"><mxGeometry x="1310" y="900" width="60" height="60" as="geometry"/></mxCell><mxCell id="LMqbLxut6mDjRL3H9NC4-3" value="" style="endArrow=none;dashed=1;html=1;dashPattern=1 3;strokeWidth=2;rounded=0;entryX=0.55;entryY=0.95;entryDx=0;entryDy=0;entryPerimeter=0;fontSize=13;" parent="1" edge="1"><mxGeometry width="50" height="50" relative="1" as="geometry"><mxPoint x="1341" y="2200" as="sourcePoint"/><mxPoint x="1341" y="955" as="targetPoint"/></mxGeometry></mxCell><mxCell id="LMqbLxut6mDjRL3H9NC4-4" value="Success Response" style="endArrow=classic;html=1;rounded=0;fontSize=13;" parent="1" edge="1"><mxGeometry x="0.6418" y="1" width="50" height="50" relative="1" as="geometry"><mxPoint x="1339" y="1703" as="sourcePoint"/><mxPoint x="669" y="1703" as="targetPoint"/><mxPoint as="offset"/></mxGeometry></mxCell></root></mxGraphModel></diagram><diagram name="Forgot password" id="YMmXsOBnciZz9MSniVG5">&#xa;    <mxGraphModel dx="1434" dy="843" grid="1" gridSize="10" guides="1" tooltips="1" connect="1" arrows="1" fold="1" page="1" pageScale="1" pageWidth="827" pageHeight="1169" math="0" shadow="0">&#xa;      <root>&#xa;        <mxCell id="4v8_PV8cJf2KChNzVVkc-0"/>&#xa;        <mxCell id="4v8_PV8cJf2KChNzVVkc-1" parent="4v8_PV8cJf2KChNzVVkc-0"/>&#xa;        <mxCell id="4v8_PV8cJf2KChNzVVkc-2" value="" style="shape=umlLifeline;perimeter=lifelinePerimeter;whiteSpace=wrap;html=1;container=1;dropTarget=0;collapsible=0;recursiveResize=0;outlineConnect=0;portConstraint=eastwest;newEdgeStyle={&quot;edgeStyle&quot;:&quot;elbowEdgeStyle&quot;,&quot;elbow&quot;:&quot;vertical&quot;,&quot;curved&quot;:0,&quot;rounded&quot;:0};participant=umlActor;fontSize=13;" parent="4v8_PV8cJf2KChNzVVkc-1" vertex="1">&#xa;          <mxGeometry x="120" y="90" width="20" height="1190" as="geometry"/>&#xa;        </mxCell>&#xa;        <mxCell id="4v8_PV8cJf2KChNzVVkc-3" value="Client(ReactJs)" style="shape=umlLifeline;perimeter=lifelinePerimeter;whiteSpace=wrap;html=1;container=1;dropTarget=0;collapsible=0;recursiveResize=0;outlineConnect=0;portConstraint=eastwest;newEdgeStyle={&quot;edgeStyle&quot;:&quot;elbowEdgeStyle&quot;,&quot;elbow&quot;:&quot;vertical&quot;,&quot;curved&quot;:0,&quot;rounded&quot;:0};fontSize=13;" parent="4v8_PV8cJf2KChNzVVkc-1" vertex="1">&#xa;          <mxGeometry x="370" y="100" width="100" height="1180" as="geometry"/>&#xa;        </mxCell>&#xa;        <mxCell id="4v8_PV8cJf2KChNzVVkc-5" value="&lt;font style=&quot;font-size: 13px;&quot;&gt;Aws (Amplify)&lt;/font&gt;" style="ellipse;shape=cloud;whiteSpace=wrap;html=1;fontSize=13;" parent="4v8_PV8cJf2KChNzVVkc-1" vertex="1">&#xa;          <mxGeometry x="660" y="60" width="180" height="90" as="geometry"/>&#xa;        </mxCell>&#xa;        <mxCell id="4v8_PV8cJf2KChNzVVkc-6" value="User" style="text;html=1;align=center;verticalAlign=middle;resizable=0;points=[];autosize=1;strokeColor=none;fillColor=none;fontSize=13;" parent="4v8_PV8cJf2KChNzVVkc-1" vertex="1">&#xa;          <mxGeometry x="50" y="100" width="50" height="30" as="geometry"/>&#xa;        </mxCell>&#xa;        <mxCell id="4v8_PV8cJf2KChNzVVkc-7" value="" style="endArrow=classic;html=1;rounded=0;fontSize=13;" parent="4v8_PV8cJf2KChNzVVkc-1" edge="1">&#xa;          <mxGeometry width="50" height="50" relative="1" as="geometry">&#xa;            <mxPoint x="129.5" y="195" as="sourcePoint"/>&#xa;            <mxPoint x="419.5" y="195" as="targetPoint"/>&#xa;          </mxGeometry>&#xa;        </mxCell>&#xa;        <mxCell id="R1lCAapb8kqSQXrNe828-2" value="Forgot password Request" style="edgeLabel;html=1;align=center;verticalAlign=middle;resizable=0;points=[];fontSize=13;" parent="4v8_PV8cJf2KChNzVVkc-7" vertex="1" connectable="0">&#xa;          <mxGeometry x="-0.0983" y="-1" relative="1" as="geometry">&#xa;            <mxPoint x="-26" y="-1" as="offset"/>&#xa;          </mxGeometry>&#xa;        </mxCell>&#xa;        <mxCell id="4v8_PV8cJf2KChNzVVkc-9" value="" style="endArrow=none;dashed=1;html=1;dashPattern=1 3;strokeWidth=2;rounded=0;entryX=0.55;entryY=0.95;entryDx=0;entryDy=0;entryPerimeter=0;fontSize=13;" parent="4v8_PV8cJf2KChNzVVkc-1" target="4v8_PV8cJf2KChNzVVkc-5" edge="1">&#xa;          <mxGeometry width="50" height="50" relative="1" as="geometry">&#xa;            <mxPoint x="759" y="1280" as="sourcePoint"/>&#xa;            <mxPoint x="800" y="160" as="targetPoint"/>&#xa;          </mxGeometry>&#xa;        </mxCell>&#xa;        <mxCell id="4v8_PV8cJf2KChNzVVkc-10" value="" style="endArrow=classic;html=1;rounded=0;fontSize=13;" parent="4v8_PV8cJf2KChNzVVkc-1" edge="1">&#xa;          <mxGeometry width="50" height="50" relative="1" as="geometry">&#xa;            <mxPoint x="420" y="270" as="sourcePoint"/>&#xa;            <mxPoint x="129.5" y="270" as="targetPoint"/>&#xa;          </mxGeometry>&#xa;        </mxCell>&#xa;        <mxCell id="4v8_PV8cJf2KChNzVVkc-11" value="Navigate to forgot password page" style="edgeLabel;html=1;align=center;verticalAlign=middle;resizable=0;points=[];fontSize=13;" parent="4v8_PV8cJf2KChNzVVkc-10" vertex="1" connectable="0">&#xa;          <mxGeometry x="-0.0037" y="2" relative="1" as="geometry">&#xa;            <mxPoint x="-22" y="-2" as="offset"/>&#xa;          </mxGeometry>&#xa;        </mxCell>&#xa;        <mxCell id="4v8_PV8cJf2KChNzVVkc-12" value="" style="endArrow=classic;html=1;rounded=0;fontSize=13;" parent="4v8_PV8cJf2KChNzVVkc-1" edge="1">&#xa;          <mxGeometry width="50" height="50" relative="1" as="geometry">&#xa;            <mxPoint x="760" y="563" as="sourcePoint"/>&#xa;            <mxPoint x="420" y="563" as="targetPoint"/>&#xa;          </mxGeometry>&#xa;        </mxCell>&#xa;        <mxCell id="4v8_PV8cJf2KChNzVVkc-13" value="Success Response with OTP sent&lt;br&gt;&amp;nbsp; to user email" style="edgeLabel;html=1;align=center;verticalAlign=middle;resizable=0;points=[];fontSize=13;" parent="4v8_PV8cJf2KChNzVVkc-12" vertex="1" connectable="0">&#xa;          <mxGeometry x="-0.0037" y="2" relative="1" as="geometry">&#xa;            <mxPoint x="3" y="-2" as="offset"/>&#xa;          </mxGeometry>&#xa;        </mxCell>&#xa;        <mxCell id="4v8_PV8cJf2KChNzVVkc-14" value="" style="endArrow=classic;html=1;rounded=0;fontSize=13;" parent="4v8_PV8cJf2KChNzVVkc-1" edge="1">&#xa;          <mxGeometry width="50" height="50" relative="1" as="geometry">&#xa;            <mxPoint x="420" y="626" as="sourcePoint"/>&#xa;            <mxPoint x="129.5" y="626" as="targetPoint"/>&#xa;          </mxGeometry>&#xa;        </mxCell>&#xa;        <mxCell id="4v8_PV8cJf2KChNzVVkc-15" value="Navigate to Reset password&lt;br&gt;&amp;nbsp;page" style="edgeLabel;html=1;align=center;verticalAlign=middle;resizable=0;points=[];fontSize=13;" parent="4v8_PV8cJf2KChNzVVkc-14" vertex="1" connectable="0">&#xa;          <mxGeometry x="-0.0173" y="-1" relative="1" as="geometry">&#xa;            <mxPoint x="-34" y="-1" as="offset"/>&#xa;          </mxGeometry>&#xa;        </mxCell>&#xa;        <mxCell id="4v8_PV8cJf2KChNzVVkc-16" value="&lt;h1&gt;&lt;font style=&quot;font-size: 24px;&quot;&gt;Forgot password&lt;/font&gt;&lt;/h1&gt;" style="text;html=1;strokeColor=none;fillColor=none;align=center;verticalAlign=middle;whiteSpace=wrap;rounded=0;" parent="4v8_PV8cJf2KChNzVVkc-1" vertex="1">&#xa;          <mxGeometry x="360" y="10" width="270" height="60" as="geometry"/>&#xa;        </mxCell>&#xa;        <mxCell id="4v8_PV8cJf2KChNzVVkc-17" value="Alternative" style="shape=umlFrame;whiteSpace=wrap;html=1;pointerEvents=0;fontSize=13;" parent="4v8_PV8cJf2KChNzVVkc-1" vertex="1">&#xa;          <mxGeometry x="340" y="493" width="500" height="677" as="geometry"/>&#xa;        </mxCell>&#xa;        <mxCell id="4v8_PV8cJf2KChNzVVkc-19" value="" style="endArrow=classic;html=1;rounded=0;fontSize=13;" parent="4v8_PV8cJf2KChNzVVkc-1" edge="1">&#xa;          <mxGeometry width="50" height="50" relative="1" as="geometry">&#xa;            <mxPoint x="760" y="1056" as="sourcePoint"/>&#xa;            <mxPoint x="420" y="1056" as="targetPoint"/>&#xa;          </mxGeometry>&#xa;        </mxCell>&#xa;        <mxCell id="4v8_PV8cJf2KChNzVVkc-20" value="Error Response with message" style="edgeLabel;html=1;align=center;verticalAlign=middle;resizable=0;points=[];fontSize=13;" parent="4v8_PV8cJf2KChNzVVkc-19" vertex="1" connectable="0">&#xa;          <mxGeometry x="-0.0037" y="2" relative="1" as="geometry">&#xa;            <mxPoint x="10" y="-2" as="offset"/>&#xa;          </mxGeometry>&#xa;        </mxCell>&#xa;        <mxCell id="4v8_PV8cJf2KChNzVVkc-21" value="" style="endArrow=classic;html=1;rounded=0;fontSize=13;" parent="4v8_PV8cJf2KChNzVVkc-1" edge="1">&#xa;          <mxGeometry width="50" height="50" relative="1" as="geometry">&#xa;            <mxPoint x="420" y="1122" as="sourcePoint"/>&#xa;            <mxPoint x="129.5" y="1122" as="targetPoint"/>&#xa;          </mxGeometry>&#xa;        </mxCell>&#xa;        <mxCell id="4v8_PV8cJf2KChNzVVkc-22" value="Display Error message" style="edgeLabel;html=1;align=center;verticalAlign=middle;resizable=0;points=[];fontSize=13;" parent="4v8_PV8cJf2KChNzVVkc-21" vertex="1" connectable="0">&#xa;          <mxGeometry x="0.0902" y="1" relative="1" as="geometry">&#xa;            <mxPoint x="-36" y="-1" as="offset"/>&#xa;          </mxGeometry>&#xa;        </mxCell>&#xa;        <mxCell id="R1lCAapb8kqSQXrNe828-3" value="" style="endArrow=classic;html=1;rounded=0;fontSize=13;" parent="4v8_PV8cJf2KChNzVVkc-1" edge="1">&#xa;          <mxGeometry width="50" height="50" relative="1" as="geometry">&#xa;            <mxPoint x="129.5" y="348" as="sourcePoint"/>&#xa;            <mxPoint x="418.5" y="348" as="targetPoint"/>&#xa;          </mxGeometry>&#xa;        </mxCell>&#xa;        <mxCell id="R1lCAapb8kqSQXrNe828-4" value="Enter email" style="edgeLabel;html=1;align=center;verticalAlign=middle;resizable=0;points=[];fontSize=13;" parent="R1lCAapb8kqSQXrNe828-3" vertex="1" connectable="0">&#xa;          <mxGeometry x="-0.0983" y="-1" relative="1" as="geometry">&#xa;            <mxPoint x="-68" y="-2" as="offset"/>&#xa;          </mxGeometry>&#xa;        </mxCell>&#xa;        <mxCell id="R1lCAapb8kqSQXrNe828-5" value="" style="endArrow=classic;html=1;rounded=0;fontSize=13;" parent="4v8_PV8cJf2KChNzVVkc-1" edge="1">&#xa;          <mxGeometry width="50" height="50" relative="1" as="geometry">&#xa;            <mxPoint x="420" y="424" as="sourcePoint"/>&#xa;            <mxPoint x="760" y="424" as="targetPoint"/>&#xa;          </mxGeometry>&#xa;        </mxCell>&#xa;        <mxCell id="R1lCAapb8kqSQXrNe828-6" value="Forgot password Request&amp;nbsp;using&lt;br&gt;&amp;nbsp;aws-amplify" style="edgeLabel;html=1;align=center;verticalAlign=middle;resizable=0;points=[];fontSize=13;" parent="R1lCAapb8kqSQXrNe828-5" vertex="1" connectable="0">&#xa;          <mxGeometry x="-0.0037" y="2" relative="1" as="geometry">&#xa;            <mxPoint x="-25" y="1" as="offset"/>&#xa;          </mxGeometry>&#xa;        </mxCell>&#xa;        <mxCell id="T7mK0L1CL60bY_1S-7YG-0" value="" style="endArrow=classic;html=1;rounded=0;fontSize=13;" parent="4v8_PV8cJf2KChNzVVkc-1" edge="1">&#xa;          <mxGeometry width="50" height="50" relative="1" as="geometry">&#xa;            <mxPoint x="129.5" y="707" as="sourcePoint"/>&#xa;            <mxPoint x="420" y="707" as="targetPoint"/>&#xa;          </mxGeometry>&#xa;        </mxCell>&#xa;        <mxCell id="T7mK0L1CL60bY_1S-7YG-4" value="Enter verification code with &lt;br style=&quot;font-size: 13px;&quot;&gt;new password" style="edgeLabel;html=1;align=center;verticalAlign=middle;resizable=0;points=[];fontSize=13;" parent="T7mK0L1CL60bY_1S-7YG-0" vertex="1" connectable="0">&#xa;          <mxGeometry x="-0.1132" y="-2" relative="1" as="geometry">&#xa;            <mxPoint x="-24" y="-3" as="offset"/>&#xa;          </mxGeometry>&#xa;        </mxCell>&#xa;        <mxCell id="T7mK0L1CL60bY_1S-7YG-5" value="" style="endArrow=classic;html=1;rounded=0;fontSize=13;" parent="4v8_PV8cJf2KChNzVVkc-1" edge="1">&#xa;          <mxGeometry width="50" height="50" relative="1" as="geometry">&#xa;            <mxPoint x="420" y="780" as="sourcePoint"/>&#xa;            <mxPoint x="760" y="780" as="targetPoint"/>&#xa;          </mxGeometry>&#xa;        </mxCell>&#xa;        <mxCell id="T7mK0L1CL60bY_1S-7YG-6" value="Reset password request with&lt;br&gt;&amp;nbsp;OTP and new password" style="edgeLabel;html=1;align=center;verticalAlign=middle;resizable=0;points=[];fontSize=13;" parent="T7mK0L1CL60bY_1S-7YG-5" vertex="1" connectable="0">&#xa;          <mxGeometry x="-0.1132" y="-2" relative="1" as="geometry">&#xa;            <mxPoint x="13" y="-3" as="offset"/>&#xa;          </mxGeometry>&#xa;        </mxCell>&#xa;        <mxCell id="T7mK0L1CL60bY_1S-7YG-7" value="" style="endArrow=classic;html=1;rounded=0;fontSize=13;" parent="4v8_PV8cJf2KChNzVVkc-1" edge="1">&#xa;          <mxGeometry width="50" height="50" relative="1" as="geometry">&#xa;            <mxPoint x="760" y="858" as="sourcePoint"/>&#xa;            <mxPoint x="420" y="858" as="targetPoint"/>&#xa;          </mxGeometry>&#xa;        </mxCell>&#xa;        <mxCell id="T7mK0L1CL60bY_1S-7YG-8" value="Success Response" style="edgeLabel;html=1;align=center;verticalAlign=middle;resizable=0;points=[];fontSize=13;" parent="T7mK0L1CL60bY_1S-7YG-7" vertex="1" connectable="0">&#xa;          <mxGeometry x="-0.0037" y="2" relative="1" as="geometry">&#xa;            <mxPoint x="-14" y="-2" as="offset"/>&#xa;          </mxGeometry>&#xa;        </mxCell>&#xa;        <mxCell id="T7mK0L1CL60bY_1S-7YG-9" value="" style="endArrow=classic;html=1;rounded=0;fontSize=13;" parent="4v8_PV8cJf2KChNzVVkc-1" edge="1">&#xa;          <mxGeometry width="50" height="50" relative="1" as="geometry">&#xa;            <mxPoint x="420" y="923" as="sourcePoint"/>&#xa;            <mxPoint x="129.5" y="923" as="targetPoint"/>&#xa;          </mxGeometry>&#xa;        </mxCell>&#xa;        <mxCell id="T7mK0L1CL60bY_1S-7YG-10" value="Navigate to Login page" style="edgeLabel;html=1;align=center;verticalAlign=middle;resizable=0;points=[];fontSize=13;" parent="T7mK0L1CL60bY_1S-7YG-9" vertex="1" connectable="0">&#xa;          <mxGeometry x="-0.0173" y="-1" relative="1" as="geometry">&#xa;            <mxPoint x="-51" as="offset"/>&#xa;          </mxGeometry>&#xa;        </mxCell>&#xa;        <mxCell id="T7mK0L1CL60bY_1S-7YG-11" value="" style="endArrow=none;dashed=1;html=1;dashPattern=1 3;strokeWidth=2;rounded=0;entryX=0.996;entryY=0.737;entryDx=0;entryDy=0;entryPerimeter=0;fontSize=13;" parent="4v8_PV8cJf2KChNzVVkc-1" target="4v8_PV8cJf2KChNzVVkc-17" edge="1">&#xa;          <mxGeometry width="50" height="50" relative="1" as="geometry">&#xa;            <mxPoint x="340" y="992" as="sourcePoint"/>&#xa;            <mxPoint x="821.2799999999997" y="991.876" as="targetPoint"/>&#xa;          </mxGeometry>&#xa;        </mxCell>&#xa;        <mxCell id="o_2CT8Vn8g3hSYH1eCAt-0" value="if(valid User Email)" style="text;html=1;align=center;verticalAlign=middle;resizable=0;points=[];autosize=1;strokeColor=none;fillColor=none;fontSize=13;" parent="4v8_PV8cJf2KChNzVVkc-1" vertex="1">&#xa;          <mxGeometry x="332" y="527" width="130" height="30" as="geometry"/>&#xa;        </mxCell>&#xa;      </root>&#xa;    </mxGraphModel>&#xa;  </diagram><diagram name="Invite" id="ljxPCcpsBTh9JMVGsw4W"><mxGraphModel dx="894" dy="446" grid="1" gridSize="10" guides="1" tooltips="1" connect="1" arrows="1" fold="1" page="1" pageScale="1" pageWidth="827" pageHeight="1169" math="0" shadow="0"><root><mxCell id="h-4lfJUtVB04rpqNAPLl-0"/><mxCell id="h-4lfJUtVB04rpqNAPLl-1" parent="h-4lfJUtVB04rpqNAPLl-0"/><mxCell id="h-4lfJUtVB04rpqNAPLl-2" value="" style="shape=umlLifeline;perimeter=lifelinePerimeter;whiteSpace=wrap;html=1;container=1;dropTarget=0;collapsible=0;recursiveResize=0;outlineConnect=0;portConstraint=eastwest;newEdgeStyle={&quot;edgeStyle&quot;:&quot;elbowEdgeStyle&quot;,&quot;elbow&quot;:&quot;vertical&quot;,&quot;curved&quot;:0,&quot;rounded&quot;:0};participant=umlActor;fontSize=13;" parent="h-4lfJUtVB04rpqNAPLl-1" vertex="1"><mxGeometry x="80" y="100" width="20" height="1820" as="geometry"/></mxCell><mxCell id="h-4lfJUtVB04rpqNAPLl-3" value="Client(ReactJs)" style="shape=umlLifeline;perimeter=lifelinePerimeter;whiteSpace=wrap;html=1;container=1;dropTarget=0;collapsible=0;recursiveResize=0;outlineConnect=0;portConstraint=eastwest;newEdgeStyle={&quot;edgeStyle&quot;:&quot;elbowEdgeStyle&quot;,&quot;elbow&quot;:&quot;vertical&quot;,&quot;curved&quot;:0,&quot;rounded&quot;:0};fontSize=13;" parent="h-4lfJUtVB04rpqNAPLl-1" vertex="1"><mxGeometry x="300" y="110" width="100" height="1810" as="geometry"/></mxCell><mxCell id="h-4lfJUtVB04rpqNAPLl-4" value="Server (Java Spring)" style="shape=umlLifeline;perimeter=lifelinePerimeter;whiteSpace=wrap;html=1;container=1;dropTarget=0;collapsible=0;recursiveResize=0;outlineConnect=0;portConstraint=eastwest;newEdgeStyle={&quot;edgeStyle&quot;:&quot;elbowEdgeStyle&quot;,&quot;elbow&quot;:&quot;vertical&quot;,&quot;curved&quot;:0,&quot;rounded&quot;:0};gradientColor=none;fontSize=13;" parent="h-4lfJUtVB04rpqNAPLl-1" vertex="1"><mxGeometry x="540" y="110" width="100" height="1810" as="geometry"/></mxCell><mxCell id="h-4lfJUtVB04rpqNAPLl-5" value="&lt;font style=&quot;font-size: 13px;&quot;&gt;Aws (Cognito)&lt;/font&gt;" style="ellipse;shape=cloud;whiteSpace=wrap;html=1;fontSize=13;" parent="h-4lfJUtVB04rpqNAPLl-1" vertex="1"><mxGeometry x="790" y="70" width="180" height="90" as="geometry"/></mxCell><mxCell id="h-4lfJUtVB04rpqNAPLl-6" value="User" style="text;html=1;align=center;verticalAlign=middle;resizable=0;points=[];autosize=1;strokeColor=none;fillColor=none;fontSize=13;" parent="h-4lfJUtVB04rpqNAPLl-1" vertex="1"><mxGeometry x="10" y="110" width="50" height="30" as="geometry"/></mxCell><mxCell id="h-4lfJUtVB04rpqNAPLl-7" value="`" style="endArrow=classic;html=1;rounded=0;fontSize=13;" parent="h-4lfJUtVB04rpqNAPLl-1" edge="1"><mxGeometry width="50" height="50" relative="1" as="geometry"><mxPoint x="90" y="199" as="sourcePoint"/><mxPoint x="349.5" y="199" as="targetPoint"/></mxGeometry></mxCell><mxCell id="h-4lfJUtVB04rpqNAPLl-8" value="Invite User request with data and&lt;br&gt;&amp;nbsp;who invited the user id" style="edgeLabel;html=1;align=center;verticalAlign=middle;resizable=0;points=[];fontSize=13;" parent="h-4lfJUtVB04rpqNAPLl-7" vertex="1" connectable="0"><mxGeometry x="-0.0983" y="-1" relative="1" as="geometry"><mxPoint x="-5" y="-2" as="offset"/></mxGeometry></mxCell><mxCell id="h-4lfJUtVB04rpqNAPLl-9" value="" style="endArrow=none;dashed=1;html=1;dashPattern=1 3;strokeWidth=2;rounded=0;entryX=0.55;entryY=0.95;entryDx=0;entryDy=0;entryPerimeter=0;fontSize=13;" parent="h-4lfJUtVB04rpqNAPLl-1" target="h-4lfJUtVB04rpqNAPLl-5" edge="1"><mxGeometry width="50" height="50" relative="1" as="geometry"><mxPoint x="890" y="1910" as="sourcePoint"/><mxPoint x="930" y="170" as="targetPoint"/></mxGeometry></mxCell><mxCell id="h-4lfJUtVB04rpqNAPLl-12" value="" style="endArrow=classic;html=1;rounded=0;fontSize=13;" parent="h-4lfJUtVB04rpqNAPLl-1" edge="1"><mxGeometry width="50" height="50" relative="1" as="geometry"><mxPoint x="890" y="448" as="sourcePoint"/><mxPoint x="590" y="448" as="targetPoint"/></mxGeometry></mxCell><mxCell id="h-4lfJUtVB04rpqNAPLl-13" value="Success response has been generated, and&lt;br style=&quot;font-size: 13px;&quot;&gt;&amp;nbsp;a temporary&amp;nbsp;password has been sent to the&lt;br style=&quot;font-size: 13px;&quot;&gt;&amp;nbsp;Invited user's email address." style="edgeLabel;html=1;align=center;verticalAlign=middle;resizable=0;points=[];fontSize=13;" parent="h-4lfJUtVB04rpqNAPLl-12" vertex="1" connectable="0"><mxGeometry x="-0.0037" y="2" relative="1" as="geometry"><mxPoint x="-4" y="-3" as="offset"/></mxGeometry></mxCell><mxCell id="h-4lfJUtVB04rpqNAPLl-14" value="" style="endArrow=classic;html=1;rounded=0;fontSize=13;" parent="h-4lfJUtVB04rpqNAPLl-1" edge="1"><mxGeometry width="50" height="50" relative="1" as="geometry"><mxPoint x="350" y="1538" as="sourcePoint"/><mxPoint x="89.5" y="1538" as="targetPoint"/></mxGeometry></mxCell><mxCell id="h-4lfJUtVB04rpqNAPLl-15" value="Display the updated user list " style="edgeLabel;html=1;align=center;verticalAlign=middle;resizable=0;points=[];fontSize=13;" parent="h-4lfJUtVB04rpqNAPLl-14" vertex="1" connectable="0"><mxGeometry x="-0.0173" y="-1" relative="1" as="geometry"><mxPoint x="-27" y="1" as="offset"/></mxGeometry></mxCell><mxCell id="h-4lfJUtVB04rpqNAPLl-16" value="&lt;h1&gt;&lt;font style=&quot;font-size: 24px;&quot;&gt;Invite User&lt;/font&gt;&lt;/h1&gt;" style="text;html=1;strokeColor=none;fillColor=none;align=center;verticalAlign=middle;whiteSpace=wrap;rounded=0;" parent="h-4lfJUtVB04rpqNAPLl-1" vertex="1"><mxGeometry x="480" y="10" width="270" height="60" as="geometry"/></mxCell><mxCell id="h-4lfJUtVB04rpqNAPLl-17" value="Alternative" style="shape=umlFrame;whiteSpace=wrap;html=1;pointerEvents=0;fontSize=13;" parent="h-4lfJUtVB04rpqNAPLl-1" vertex="1"><mxGeometry x="290" y="390" width="660" height="1470" as="geometry"/></mxCell><mxCell id="h-4lfJUtVB04rpqNAPLl-18" value="" style="endArrow=classic;html=1;rounded=0;fontSize=13;" parent="h-4lfJUtVB04rpqNAPLl-1" edge="1"><mxGeometry width="50" height="50" relative="1" as="geometry"><mxPoint x="890" y="1644" as="sourcePoint"/><mxPoint x="590" y="1645" as="targetPoint"/></mxGeometry></mxCell><mxCell id="h-4lfJUtVB04rpqNAPLl-19" value="Error Response with message" style="edgeLabel;html=1;align=center;verticalAlign=middle;resizable=0;points=[];fontSize=13;" parent="h-4lfJUtVB04rpqNAPLl-18" vertex="1" connectable="0"><mxGeometry x="-0.0037" y="2" relative="1" as="geometry"><mxPoint x="-19" y="-2" as="offset"/></mxGeometry></mxCell><mxCell id="h-4lfJUtVB04rpqNAPLl-20" value="" style="endArrow=classic;html=1;rounded=0;fontSize=13;" parent="h-4lfJUtVB04rpqNAPLl-1" edge="1"><mxGeometry width="50" height="50" relative="1" as="geometry"><mxPoint x="350" y="1807" as="sourcePoint"/><mxPoint x="89.5" y="1807" as="targetPoint"/></mxGeometry></mxCell><mxCell id="h-4lfJUtVB04rpqNAPLl-21" value="Display Error message" style="edgeLabel;html=1;align=center;verticalAlign=middle;resizable=0;points=[];fontSize=13;" parent="h-4lfJUtVB04rpqNAPLl-20" vertex="1" connectable="0"><mxGeometry x="0.0902" y="1" relative="1" as="geometry"><mxPoint x="-20" y="-1" as="offset"/></mxGeometry></mxCell><mxCell id="h-4lfJUtVB04rpqNAPLl-24" value="Invite User Request with User data" style="endArrow=classic;html=1;rounded=0;fontSize=13;" parent="h-4lfJUtVB04rpqNAPLl-1" edge="1"><mxGeometry x="0.0041" width="50" height="50" relative="1" as="geometry"><mxPoint x="348.5" y="268" as="sourcePoint"/><mxPoint x="589.5" y="268" as="targetPoint"/><mxPoint as="offset"/></mxGeometry></mxCell><mxCell id="h-4lfJUtVB04rpqNAPLl-34" value="" style="endArrow=none;dashed=1;html=1;dashPattern=1 3;strokeWidth=2;rounded=0;entryX=1.002;entryY=0.658;entryDx=0;entryDy=0;entryPerimeter=0;exitX=-0.006;exitY=0.599;exitDx=0;exitDy=0;exitPerimeter=0;fontSize=13;" parent="h-4lfJUtVB04rpqNAPLl-1" edge="1"><mxGeometry width="50" height="50" relative="1" as="geometry"><mxPoint x="286.03999999999996" y="1586.0665" as="sourcePoint"/><mxPoint x="951.2799999999997" y="1583.876" as="targetPoint"/></mxGeometry></mxCell><mxCell id="uSOigpBN-gs9MxZKElo9-0" value="Invite a user in an AWS Cognito&lt;br style=&quot;border-color: var(--border-color); font-size: 13px;&quot;&gt;&amp;nbsp;User Pool using AWS SDKs" style="endArrow=classic;html=1;rounded=0;fontSize=13;" parent="h-4lfJUtVB04rpqNAPLl-1" edge="1"><mxGeometry x="0.0017" width="50" height="50" relative="1" as="geometry"><mxPoint x="590.5" y="335" as="sourcePoint"/><mxPoint x="890" y="335" as="targetPoint"/><mxPoint as="offset"/></mxGeometry></mxCell><mxCell id="h2L_d050o1RvNCDmrBc5-0" value="Retrieved Users Response" style="endArrow=classic;html=1;rounded=0;fontSize=13;" parent="h-4lfJUtVB04rpqNAPLl-1" edge="1"><mxGeometry x="0.0041" width="50" height="50" relative="1" as="geometry"><mxPoint x="591" y="1459" as="sourcePoint"/><mxPoint x="349.5" y="1459" as="targetPoint"/><mxPoint as="offset"/></mxGeometry></mxCell><mxCell id="h2L_d050o1RvNCDmrBc5-1" value="Error Response" style="endArrow=classic;html=1;rounded=0;fontSize=13;" parent="h-4lfJUtVB04rpqNAPLl-1" edge="1"><mxGeometry x="0.0041" width="50" height="50" relative="1" as="geometry"><mxPoint x="591" y="1725" as="sourcePoint"/><mxPoint x="349.5" y="1725" as="targetPoint"/><mxPoint as="offset"/></mxGeometry></mxCell><mxCell id="ti8k7T0BxYhqS7-lcUnB-0" value="&lt;br style=&quot;font-size: 13px;&quot;&gt;&lt;b style=&quot;font-size: 13px;&quot;&gt;Cognito Attribute&lt;/b&gt;&lt;br style=&quot;font-size: 13px;&quot;&gt;given_name&lt;br style=&quot;font-size: 13px;&quot;&gt;family_name&lt;br style=&quot;font-size: 13px;&quot;&gt;phone_number&lt;br style=&quot;font-size: 13px;&quot;&gt;email" style="text;html=1;align=center;verticalAlign=middle;resizable=0;points=[];autosize=1;strokeColor=none;fillColor=none;fontSize=13;" parent="h-4lfJUtVB04rpqNAPLl-1" vertex="1"><mxGeometry x="1285" y="175" width="130" height="110" as="geometry"/></mxCell><mxCell id="ti8k7T0BxYhqS7-lcUnB-1" value="&lt;b style=&quot;font-size: 13px;&quot;&gt;Custom Attribute&lt;/b&gt;&lt;br style=&quot;font-size: 13px;&quot;&gt;custom:user_id" style="text;html=1;align=center;verticalAlign=middle;resizable=0;points=[];autosize=1;strokeColor=none;fillColor=none;fontSize=13;" parent="h-4lfJUtVB04rpqNAPLl-1" vertex="1"><mxGeometry x="1295" y="310" width="130" height="40" as="geometry"/></mxCell><mxCell id="jqfiS0z0j_vbIdtEp-Nl-0" value="Save user data in the &quot;User&quot;,&lt;br&gt;&amp;nbsp;&quot;UserRoleMap&quot;&lt;br&gt;&amp;nbsp;and&amp;nbsp;&quot;UserGroupMap&quot;&amp;nbsp; &lt;br&gt;tables in the database" style="endArrow=classic;html=1;rounded=0;fontSize=13;" parent="h-4lfJUtVB04rpqNAPLl-1" edge="1"><mxGeometry x="-0.463" y="-3" width="50" height="50" relative="1" as="geometry"><mxPoint x="589.5" y="557" as="sourcePoint"/><mxPoint x="1150" y="557" as="targetPoint"/><mxPoint x="1" as="offset"/></mxGeometry></mxCell><mxCell id="jqfiS0z0j_vbIdtEp-Nl-1" value="Database" style="shape=datastore;whiteSpace=wrap;html=1;fontSize=13;" parent="h-4lfJUtVB04rpqNAPLl-1" vertex="1"><mxGeometry x="1120" y="90" width="60" height="60" as="geometry"/></mxCell><mxCell id="jqfiS0z0j_vbIdtEp-Nl-2" value="" style="endArrow=none;dashed=1;html=1;dashPattern=1 3;strokeWidth=2;rounded=0;entryX=0.55;entryY=0.95;entryDx=0;entryDy=0;entryPerimeter=0;fontSize=13;" parent="h-4lfJUtVB04rpqNAPLl-1" edge="1"><mxGeometry width="50" height="50" relative="1" as="geometry"><mxPoint x="1151" y="1920" as="sourcePoint"/><mxPoint x="1151" y="145" as="targetPoint"/></mxGeometry></mxCell><mxCell id="jqfiS0z0j_vbIdtEp-Nl-3" value="Success Response" style="endArrow=classic;html=1;rounded=0;fontSize=13;" parent="h-4lfJUtVB04rpqNAPLl-1" edge="1"><mxGeometry x="0.4639" width="50" height="50" relative="1" as="geometry"><mxPoint x="1151" y="1033" as="sourcePoint"/><mxPoint x="589.5" y="1033" as="targetPoint"/><mxPoint as="offset"/></mxGeometry></mxCell><mxCell id="-KMOQcCC35WvvqratMBD-0" value="if(valid user data)" style="text;html=1;align=center;verticalAlign=middle;resizable=0;points=[];autosize=1;strokeColor=none;fillColor=none;fontSize=13;" parent="h-4lfJUtVB04rpqNAPLl-1" vertex="1"><mxGeometry x="280" y="419" width="120" height="30" as="geometry"/></mxCell><mxCell id="SMD5-f-laKBzv0RBqZKb-0" value="&lt;br style=&quot;font-size: 13px;&quot;&gt;Retrieve user data from the &quot;User,&quot;&lt;br&gt;&amp;nbsp;&quot;UserRoleMap,&quot;&amp;nbsp;&quot;UserGroupMap,&quot;&amp;nbsp;and&lt;br&gt;&amp;nbsp;&quot;UserOrganizationMap&quot;&lt;br&gt;&amp;nbsp;tables in the database" style="endArrow=classic;html=1;rounded=0;fontSize=13;" parent="h-4lfJUtVB04rpqNAPLl-1" edge="1"><mxGeometry x="-0.463" width="50" height="50" relative="1" as="geometry"><mxPoint x="589.5" y="1283" as="sourcePoint"/><mxPoint x="1150" y="1283" as="targetPoint"/><mxPoint x="1" as="offset"/></mxGeometry></mxCell><mxCell id="SMD5-f-laKBzv0RBqZKb-1" value="" style="endArrow=classic;html=1;rounded=0;fontSize=13;" parent="h-4lfJUtVB04rpqNAPLl-1" edge="1"><mxGeometry width="50" height="50" relative="1" as="geometry"><mxPoint x="1150" y="1380" as="sourcePoint"/><mxPoint x="589.5" y="1378" as="targetPoint"/></mxGeometry></mxCell><mxCell id="SMD5-f-laKBzv0RBqZKb-2" value="Success Response with Users data" style="edgeLabel;html=1;align=center;verticalAlign=middle;resizable=0;points=[];fontSize=13;" parent="SMD5-f-laKBzv0RBqZKb-1" vertex="1" connectable="0"><mxGeometry x="-0.0037" y="2" relative="1" as="geometry"><mxPoint x="-127" y="-3" as="offset"/></mxGeometry></mxCell><mxCell id="wb56_aamGtBL1TdGrvXU-0" value="Success Response" style="endArrow=classic;html=1;rounded=0;fontSize=13;" parent="h-4lfJUtVB04rpqNAPLl-1" edge="1"><mxGeometry x="0.1642" width="50" height="50" relative="1" as="geometry"><mxPoint x="590" y="1115" as="sourcePoint"/><mxPoint x="349.5" y="1115" as="targetPoint"/><mxPoint as="offset"/></mxGeometry></mxCell><mxCell id="wb56_aamGtBL1TdGrvXU-1" value="Retrieve Users Request" style="endArrow=classic;html=1;rounded=0;fontSize=13;" parent="h-4lfJUtVB04rpqNAPLl-1" edge="1"><mxGeometry x="0.0021" width="50" height="50" relative="1" as="geometry"><mxPoint x="349.5" y="1203" as="sourcePoint"/><mxPoint x="590" y="1203" as="targetPoint"/><mxPoint as="offset"/></mxGeometry></mxCell><mxCell id="daW5bzI_j3WDFmr9yP6O-0" value="Save user Organization and IDM&lt;br&gt;&amp;nbsp;information in the&amp;nbsp;&quot;User&quot;&lt;br&gt;&amp;nbsp;and &quot;UserOrganizationMap&quot;&lt;br&gt;&amp;nbsp;tables in the database" style="endArrow=classic;html=1;rounded=0;fontSize=13;" parent="h-4lfJUtVB04rpqNAPLl-1" edge="1"><mxGeometry x="-0.463" y="-3" width="50" height="50" relative="1" as="geometry"><mxPoint x="589.5" y="917" as="sourcePoint"/><mxPoint x="1150" y="917" as="targetPoint"/><mxPoint x="1" as="offset"/></mxGeometry></mxCell><mxCell id="daW5bzI_j3WDFmr9yP6O-1" value="Retrieve user organization and IDM&lt;br&gt;&amp;nbsp;(Identity Management) information from&lt;br&gt;&amp;nbsp;the database using the invited user's ID" style="endArrow=classic;html=1;rounded=0;fontSize=13;" parent="h-4lfJUtVB04rpqNAPLl-1" edge="1"><mxGeometry x="-0.463" y="-3" width="50" height="50" relative="1" as="geometry"><mxPoint x="590.5" y="677" as="sourcePoint"/><mxPoint x="1151" y="677" as="targetPoint"/><mxPoint x="1" as="offset"/></mxGeometry></mxCell><mxCell id="daW5bzI_j3WDFmr9yP6O-2" value="Retrieved user organization and IDM&lt;br&gt;&amp;nbsp;(Identity Management) information from&lt;br&gt;&amp;nbsp;the database" style="endArrow=classic;html=1;rounded=0;fontSize=13;" parent="h-4lfJUtVB04rpqNAPLl-1" edge="1"><mxGeometry x="0.388" y="3" width="50" height="50" relative="1" as="geometry"><mxPoint x="1149" y="799" as="sourcePoint"/><mxPoint x="588.5" y="799" as="targetPoint"/><mxPoint as="offset"/></mxGeometry></mxCell></root></mxGraphModel></diagram><diagram name="Edit" id="Mqbc25FANYNOo8KXgfgd">&#xa;    <mxGraphModel dx="1434" dy="843" grid="1" gridSize="10" guides="1" tooltips="1" connect="1" arrows="1" fold="1" page="1" pageScale="1" pageWidth="827" pageHeight="1169" math="0" shadow="0">&#xa;      <root>&#xa;        <mxCell id="2_Y9fhxHQ41UCH1dt6HH-0"/>&#xa;        <mxCell id="2_Y9fhxHQ41UCH1dt6HH-1" parent="2_Y9fhxHQ41UCH1dt6HH-0"/>&#xa;        <mxCell id="2_Y9fhxHQ41UCH1dt6HH-2" value="" style="shape=umlLifeline;perimeter=lifelinePerimeter;whiteSpace=wrap;html=1;container=1;dropTarget=0;collapsible=0;recursiveResize=0;outlineConnect=0;portConstraint=eastwest;newEdgeStyle={&quot;edgeStyle&quot;:&quot;elbowEdgeStyle&quot;,&quot;elbow&quot;:&quot;vertical&quot;,&quot;curved&quot;:0,&quot;rounded&quot;:0};participant=umlActor;fontSize=13;" parent="2_Y9fhxHQ41UCH1dt6HH-1" vertex="1">&#xa;          <mxGeometry x="80" y="160" width="20" height="1440" as="geometry"/>&#xa;        </mxCell>&#xa;        <mxCell id="2_Y9fhxHQ41UCH1dt6HH-3" value="Client(ReactJs)" style="shape=umlLifeline;perimeter=lifelinePerimeter;whiteSpace=wrap;html=1;container=1;dropTarget=0;collapsible=0;recursiveResize=0;outlineConnect=0;portConstraint=eastwest;newEdgeStyle={&quot;edgeStyle&quot;:&quot;elbowEdgeStyle&quot;,&quot;elbow&quot;:&quot;vertical&quot;,&quot;curved&quot;:0,&quot;rounded&quot;:0};fontSize=13;" parent="2_Y9fhxHQ41UCH1dt6HH-1" vertex="1">&#xa;          <mxGeometry x="300" y="170" width="100" height="1430" as="geometry"/>&#xa;        </mxCell>&#xa;        <mxCell id="2_Y9fhxHQ41UCH1dt6HH-4" value="Server (Java Spring)" style="shape=umlLifeline;perimeter=lifelinePerimeter;whiteSpace=wrap;html=1;container=1;dropTarget=0;collapsible=0;recursiveResize=0;outlineConnect=0;portConstraint=eastwest;newEdgeStyle={&quot;edgeStyle&quot;:&quot;elbowEdgeStyle&quot;,&quot;elbow&quot;:&quot;vertical&quot;,&quot;curved&quot;:0,&quot;rounded&quot;:0};gradientColor=none;fontSize=13;" parent="2_Y9fhxHQ41UCH1dt6HH-1" vertex="1">&#xa;          <mxGeometry x="540" y="170" width="100" height="1430" as="geometry"/>&#xa;        </mxCell>&#xa;        <mxCell id="2_Y9fhxHQ41UCH1dt6HH-5" value="&lt;font style=&quot;font-size: 13px;&quot;&gt;Aws (Cognito)&lt;/font&gt;" style="ellipse;shape=cloud;whiteSpace=wrap;html=1;fontSize=13;" parent="2_Y9fhxHQ41UCH1dt6HH-1" vertex="1">&#xa;          <mxGeometry x="790" y="130" width="180" height="90" as="geometry"/>&#xa;        </mxCell>&#xa;        <mxCell id="2_Y9fhxHQ41UCH1dt6HH-6" value="User" style="text;html=1;align=center;verticalAlign=middle;resizable=0;points=[];autosize=1;strokeColor=none;fillColor=none;fontSize=13;" parent="2_Y9fhxHQ41UCH1dt6HH-1" vertex="1">&#xa;          <mxGeometry x="10" y="170" width="50" height="30" as="geometry"/>&#xa;        </mxCell>&#xa;        <mxCell id="2_Y9fhxHQ41UCH1dt6HH-7" value="" style="endArrow=classic;html=1;rounded=0;fontSize=13;" parent="2_Y9fhxHQ41UCH1dt6HH-1" edge="1">&#xa;          <mxGeometry width="50" height="50" relative="1" as="geometry">&#xa;            <mxPoint x="90" y="275" as="sourcePoint"/>&#xa;            <mxPoint x="349.5" y="275" as="targetPoint"/>&#xa;          </mxGeometry>&#xa;        </mxCell>&#xa;        <mxCell id="2_Y9fhxHQ41UCH1dt6HH-8" value="Edit User" style="edgeLabel;html=1;align=center;verticalAlign=middle;resizable=0;points=[];fontSize=13;" parent="2_Y9fhxHQ41UCH1dt6HH-7" vertex="1" connectable="0">&#xa;          <mxGeometry x="-0.0983" y="-1" relative="1" as="geometry">&#xa;            <mxPoint x="-45" y="-2" as="offset"/>&#xa;          </mxGeometry>&#xa;        </mxCell>&#xa;        <mxCell id="2_Y9fhxHQ41UCH1dt6HH-9" value="" style="endArrow=none;dashed=1;html=1;dashPattern=1 3;strokeWidth=2;rounded=0;entryX=0.55;entryY=0.95;entryDx=0;entryDy=0;entryPerimeter=0;fontSize=13;" parent="2_Y9fhxHQ41UCH1dt6HH-1" target="2_Y9fhxHQ41UCH1dt6HH-5" edge="1">&#xa;          <mxGeometry width="50" height="50" relative="1" as="geometry">&#xa;            <mxPoint x="890" y="1600" as="sourcePoint"/>&#xa;            <mxPoint x="930" y="230" as="targetPoint"/>&#xa;          </mxGeometry>&#xa;        </mxCell>&#xa;        <mxCell id="2_Y9fhxHQ41UCH1dt6HH-10" value="" style="endArrow=classic;html=1;rounded=0;fontSize=13;" parent="2_Y9fhxHQ41UCH1dt6HH-1" edge="1">&#xa;          <mxGeometry width="50" height="50" relative="1" as="geometry">&#xa;            <mxPoint x="890" y="582" as="sourcePoint"/>&#xa;            <mxPoint x="590" y="582" as="targetPoint"/>&#xa;          </mxGeometry>&#xa;        </mxCell>&#xa;        <mxCell id="2_Y9fhxHQ41UCH1dt6HH-11" value="Success Response" style="edgeLabel;html=1;align=center;verticalAlign=middle;resizable=0;points=[];fontSize=13;" parent="2_Y9fhxHQ41UCH1dt6HH-10" vertex="1" connectable="0">&#xa;          <mxGeometry x="-0.0037" y="2" relative="1" as="geometry">&#xa;            <mxPoint x="-8" y="-3" as="offset"/>&#xa;          </mxGeometry>&#xa;        </mxCell>&#xa;        <mxCell id="2_Y9fhxHQ41UCH1dt6HH-12" value="" style="endArrow=classic;html=1;rounded=0;fontSize=13;" parent="2_Y9fhxHQ41UCH1dt6HH-1" edge="1">&#xa;          <mxGeometry width="50" height="50" relative="1" as="geometry">&#xa;            <mxPoint x="350" y="1245" as="sourcePoint"/>&#xa;            <mxPoint x="89.5" y="1245" as="targetPoint"/>&#xa;          </mxGeometry>&#xa;        </mxCell>&#xa;        <mxCell id="2_Y9fhxHQ41UCH1dt6HH-13" value="Display the updated user List" style="edgeLabel;html=1;align=center;verticalAlign=middle;resizable=0;points=[];fontSize=13;" parent="2_Y9fhxHQ41UCH1dt6HH-12" vertex="1" connectable="0">&#xa;          <mxGeometry x="-0.0173" y="-1" relative="1" as="geometry">&#xa;            <mxPoint x="-27" y="1" as="offset"/>&#xa;          </mxGeometry>&#xa;        </mxCell>&#xa;        <mxCell id="2_Y9fhxHQ41UCH1dt6HH-14" value="&lt;h1&gt;&lt;font style=&quot;font-size: 24px;&quot;&gt;Edit User&lt;/font&gt;&lt;/h1&gt;" style="text;html=1;strokeColor=none;fillColor=none;align=center;verticalAlign=middle;whiteSpace=wrap;rounded=0;" parent="2_Y9fhxHQ41UCH1dt6HH-1" vertex="1">&#xa;          <mxGeometry x="370" y="40" width="270" height="60" as="geometry"/>&#xa;        </mxCell>&#xa;        <mxCell id="2_Y9fhxHQ41UCH1dt6HH-15" value="Alternative" style="shape=umlFrame;whiteSpace=wrap;html=1;pointerEvents=0;fontSize=13;" parent="2_Y9fhxHQ41UCH1dt6HH-1" vertex="1">&#xa;          <mxGeometry x="280" y="520" width="680" height="1040" as="geometry"/>&#xa;        </mxCell>&#xa;        <mxCell id="2_Y9fhxHQ41UCH1dt6HH-16" value="" style="endArrow=classic;html=1;rounded=0;fontSize=13;" parent="2_Y9fhxHQ41UCH1dt6HH-1" edge="1">&#xa;          <mxGeometry width="50" height="50" relative="1" as="geometry">&#xa;            <mxPoint x="890" y="1362" as="sourcePoint"/>&#xa;            <mxPoint x="590" y="1362" as="targetPoint"/>&#xa;          </mxGeometry>&#xa;        </mxCell>&#xa;        <mxCell id="2_Y9fhxHQ41UCH1dt6HH-17" value="Error Response with message" style="edgeLabel;html=1;align=center;verticalAlign=middle;resizable=0;points=[];fontSize=13;" parent="2_Y9fhxHQ41UCH1dt6HH-16" vertex="1" connectable="0">&#xa;          <mxGeometry x="-0.0037" y="2" relative="1" as="geometry">&#xa;            <mxPoint x="-19" y="-2" as="offset"/>&#xa;          </mxGeometry>&#xa;        </mxCell>&#xa;        <mxCell id="2_Y9fhxHQ41UCH1dt6HH-18" value="" style="endArrow=classic;html=1;rounded=0;fontSize=13;" parent="2_Y9fhxHQ41UCH1dt6HH-1" edge="1">&#xa;          <mxGeometry width="50" height="50" relative="1" as="geometry">&#xa;            <mxPoint x="350" y="1501" as="sourcePoint"/>&#xa;            <mxPoint x="89.5" y="1501" as="targetPoint"/>&#xa;          </mxGeometry>&#xa;        </mxCell>&#xa;        <mxCell id="2_Y9fhxHQ41UCH1dt6HH-19" value="Display Error message" style="edgeLabel;html=1;align=center;verticalAlign=middle;resizable=0;points=[];fontSize=13;" parent="2_Y9fhxHQ41UCH1dt6HH-18" vertex="1" connectable="0">&#xa;          <mxGeometry x="0.0902" y="1" relative="1" as="geometry">&#xa;            <mxPoint x="-16" y="-1" as="offset"/>&#xa;          </mxGeometry>&#xa;        </mxCell>&#xa;        <mxCell id="2_Y9fhxHQ41UCH1dt6HH-20" value="Update User Request with&lt;br&gt;&amp;nbsp;User data" style="endArrow=classic;html=1;rounded=0;fontSize=13;" parent="2_Y9fhxHQ41UCH1dt6HH-1" edge="1">&#xa;          <mxGeometry x="-0.0747" width="50" height="50" relative="1" as="geometry">&#xa;            <mxPoint x="348.5" y="366" as="sourcePoint"/>&#xa;            <mxPoint x="589.5" y="366" as="targetPoint"/>&#xa;            <mxPoint x="1" as="offset"/>&#xa;          </mxGeometry>&#xa;        </mxCell>&#xa;        <mxCell id="2_Y9fhxHQ41UCH1dt6HH-21" value="" style="endArrow=none;dashed=1;html=1;dashPattern=1 3;strokeWidth=2;rounded=0;entryX=0.999;entryY=0.755;entryDx=0;entryDy=0;entryPerimeter=0;exitX=0.003;exitY=0.629;exitDx=0;exitDy=0;exitPerimeter=0;fontSize=13;" parent="2_Y9fhxHQ41UCH1dt6HH-1" target="2_Y9fhxHQ41UCH1dt6HH-15" edge="1">&#xa;          <mxGeometry width="50" height="50" relative="1" as="geometry">&#xa;            <mxPoint x="282.01" y="1307.063" as="sourcePoint"/>&#xa;            <mxPoint x="951.2799999999997" y="1308.876" as="targetPoint"/>&#xa;          </mxGeometry>&#xa;        </mxCell>&#xa;        <mxCell id="2_Y9fhxHQ41UCH1dt6HH-22" value="Update a user in an AWS Cognito&lt;br style=&quot;font-size: 13px;&quot;&gt;&amp;nbsp;User Pool using AWS SDKs" style="endArrow=classic;html=1;rounded=0;fontSize=13;" parent="2_Y9fhxHQ41UCH1dt6HH-1" edge="1">&#xa;          <mxGeometry x="0.0017" width="50" height="50" relative="1" as="geometry">&#xa;            <mxPoint x="590.5" y="445" as="sourcePoint"/>&#xa;            <mxPoint x="890" y="445" as="targetPoint"/>&#xa;            <mxPoint as="offset"/>&#xa;          </mxGeometry>&#xa;        </mxCell>&#xa;        <mxCell id="2_Y9fhxHQ41UCH1dt6HH-24" value="Error Response" style="endArrow=classic;html=1;rounded=0;fontSize=13;" parent="2_Y9fhxHQ41UCH1dt6HH-1" edge="1">&#xa;          <mxGeometry x="0.0041" width="50" height="50" relative="1" as="geometry">&#xa;            <mxPoint x="591" y="1435" as="sourcePoint"/>&#xa;            <mxPoint x="349.5" y="1435" as="targetPoint"/>&#xa;            <mxPoint as="offset"/>&#xa;          </mxGeometry>&#xa;        </mxCell>&#xa;        <mxCell id="r0IHv_tcf3nPIGsWc7l--0" value="Database" style="shape=datastore;whiteSpace=wrap;html=1;fontSize=13;" parent="2_Y9fhxHQ41UCH1dt6HH-1" vertex="1">&#xa;          <mxGeometry x="1119" y="150" width="60" height="60" as="geometry"/>&#xa;        </mxCell>&#xa;        <mxCell id="r0IHv_tcf3nPIGsWc7l--1" value="" style="endArrow=none;dashed=1;html=1;dashPattern=1 3;strokeWidth=2;rounded=0;entryX=0.55;entryY=0.95;entryDx=0;entryDy=0;entryPerimeter=0;fontSize=13;" parent="2_Y9fhxHQ41UCH1dt6HH-1" edge="1">&#xa;          <mxGeometry width="50" height="50" relative="1" as="geometry">&#xa;            <mxPoint x="1150" y="1600" as="sourcePoint"/>&#xa;            <mxPoint x="1150" y="205" as="targetPoint"/>&#xa;          </mxGeometry>&#xa;        </mxCell>&#xa;        <mxCell id="9ebAC3f0iAzhzpaMAl6c-0" value="if(valid user data)" style="text;html=1;align=center;verticalAlign=middle;resizable=0;points=[];autosize=1;strokeColor=none;fillColor=none;fontSize=13;" parent="2_Y9fhxHQ41UCH1dt6HH-1" vertex="1">&#xa;          <mxGeometry x="274" y="555" width="120" height="30" as="geometry"/>&#xa;        </mxCell>&#xa;        <mxCell id="UXWa9d1El1rhgxMxOIde-0" value="Retrieved Users Response" style="endArrow=classic;html=1;rounded=0;fontSize=13;" parent="2_Y9fhxHQ41UCH1dt6HH-1" edge="1">&#xa;          <mxGeometry x="0.0041" width="50" height="50" relative="1" as="geometry">&#xa;            <mxPoint x="591" y="1170" as="sourcePoint"/>&#xa;            <mxPoint x="349.5" y="1170" as="targetPoint"/>&#xa;            <mxPoint as="offset"/>&#xa;          </mxGeometry>&#xa;        </mxCell>&#xa;        <mxCell id="UXWa9d1El1rhgxMxOIde-1" value="&lt;br style=&quot;font-size: 13px;&quot;&gt;Retrieve user data from the &quot;User,&quot;&lt;br&gt;&amp;nbsp;&quot;UserRoleMap,&quot; &quot;UserGroupMap,&quot; and&lt;br&gt;&amp;nbsp;&quot;UserOrganizationMap&quot; tables in the database" style="endArrow=classic;html=1;rounded=0;fontSize=13;" parent="2_Y9fhxHQ41UCH1dt6HH-1" edge="1">&#xa;          <mxGeometry x="-0.4951" y="10" width="50" height="50" relative="1" as="geometry">&#xa;            <mxPoint x="588.5" y="1010" as="sourcePoint"/>&#xa;            <mxPoint x="1149" y="1010" as="targetPoint"/>&#xa;            <mxPoint x="1" as="offset"/>&#xa;          </mxGeometry>&#xa;        </mxCell>&#xa;        <mxCell id="UXWa9d1El1rhgxMxOIde-2" value="" style="endArrow=classic;html=1;rounded=0;fontSize=13;" parent="2_Y9fhxHQ41UCH1dt6HH-1" edge="1">&#xa;          <mxGeometry width="50" height="50" relative="1" as="geometry">&#xa;            <mxPoint x="1150" y="1101" as="sourcePoint"/>&#xa;            <mxPoint x="589.5" y="1099" as="targetPoint"/>&#xa;          </mxGeometry>&#xa;        </mxCell>&#xa;        <mxCell id="UXWa9d1El1rhgxMxOIde-3" value="Success Response with Users data" style="edgeLabel;html=1;align=center;verticalAlign=middle;resizable=0;points=[];fontSize=13;" parent="UXWa9d1El1rhgxMxOIde-2" vertex="1" connectable="0">&#xa;          <mxGeometry x="-0.0037" y="2" relative="1" as="geometry">&#xa;            <mxPoint x="-138" y="-3" as="offset"/>&#xa;          </mxGeometry>&#xa;        </mxCell>&#xa;        <mxCell id="UXWa9d1El1rhgxMxOIde-4" value="Retrieve Users Request" style="endArrow=classic;html=1;rounded=0;fontSize=13;" parent="2_Y9fhxHQ41UCH1dt6HH-1" edge="1">&#xa;          <mxGeometry x="0.0021" width="50" height="50" relative="1" as="geometry">&#xa;            <mxPoint x="349.5" y="930" as="sourcePoint"/>&#xa;            <mxPoint x="590" y="930" as="targetPoint"/>&#xa;            <mxPoint as="offset"/>&#xa;          </mxGeometry>&#xa;        </mxCell>&#xa;        <mxCell id="xbSuQxAVoDq_TnL2GIJF-0" value="Save user data in the &quot;User,&quot; &quot;UserRoleMap,&quot;&lt;br&gt;&amp;nbsp;&quot;UserGroupMap,&quot;&amp;nbsp;and &quot;UserOrganizationMap&quot;&lt;br&gt;&amp;nbsp;tables in the database" style="endArrow=classic;html=1;rounded=0;fontSize=13;" parent="2_Y9fhxHQ41UCH1dt6HH-1" edge="1">&#xa;          <mxGeometry x="-0.463" width="50" height="50" relative="1" as="geometry">&#xa;            <mxPoint x="589.5" y="677" as="sourcePoint"/>&#xa;            <mxPoint x="1150" y="677" as="targetPoint"/>&#xa;            <mxPoint x="1" as="offset"/>&#xa;          </mxGeometry>&#xa;        </mxCell>&#xa;        <mxCell id="sLa-NfJNGy0oeKzR0PaK-0" value="Success Response" style="endArrow=classic;html=1;rounded=0;fontSize=13;" parent="2_Y9fhxHQ41UCH1dt6HH-1" edge="1">&#xa;          <mxGeometry x="0.4639" y="1" width="50" height="50" relative="1" as="geometry">&#xa;            <mxPoint x="1151" y="769" as="sourcePoint"/>&#xa;            <mxPoint x="589.5" y="769" as="targetPoint"/>&#xa;            <mxPoint as="offset"/>&#xa;          </mxGeometry>&#xa;        </mxCell>&#xa;        <mxCell id="KRHG16kcqQfMyP1KJ1sv-0" value="Success Response" style="endArrow=classic;html=1;rounded=0;fontSize=13;" parent="2_Y9fhxHQ41UCH1dt6HH-1" edge="1">&#xa;          <mxGeometry x="0.0811" width="50" height="50" relative="1" as="geometry">&#xa;            <mxPoint x="590" y="847" as="sourcePoint"/>&#xa;            <mxPoint x="349.5" y="847" as="targetPoint"/>&#xa;            <mxPoint as="offset"/>&#xa;          </mxGeometry>&#xa;        </mxCell>&#xa;      </root>&#xa;    </mxGraphModel>&#xa;  </diagram><diagram name="Enable/Disable" id="Zo7o3kDXFR92eay8ADoP">&#xa;    <mxGraphModel dx="1434" dy="843" grid="1" gridSize="10" guides="1" tooltips="1" connect="1" arrows="1" fold="1" page="1" pageScale="1" pageWidth="827" pageHeight="1169" math="0" shadow="0">&#xa;      <root>&#xa;        <mxCell id="FSY1TfLAaGCYwKfoI0pf-0"/>&#xa;        <mxCell id="FSY1TfLAaGCYwKfoI0pf-1" parent="FSY1TfLAaGCYwKfoI0pf-0"/>&#xa;        <mxCell id="FSY1TfLAaGCYwKfoI0pf-2" value="" style="shape=umlLifeline;perimeter=lifelinePerimeter;whiteSpace=wrap;html=1;container=1;dropTarget=0;collapsible=0;recursiveResize=0;outlineConnect=0;portConstraint=eastwest;newEdgeStyle={&quot;edgeStyle&quot;:&quot;elbowEdgeStyle&quot;,&quot;elbow&quot;:&quot;vertical&quot;,&quot;curved&quot;:0,&quot;rounded&quot;:0};participant=umlActor;fontSize=13;" parent="FSY1TfLAaGCYwKfoI0pf-1" vertex="1">&#xa;          <mxGeometry x="80" y="160" width="20" height="1320" as="geometry"/>&#xa;        </mxCell>&#xa;        <mxCell id="FSY1TfLAaGCYwKfoI0pf-3" value="Client(ReactJs)" style="shape=umlLifeline;perimeter=lifelinePerimeter;whiteSpace=wrap;html=1;container=1;dropTarget=0;collapsible=0;recursiveResize=0;outlineConnect=0;portConstraint=eastwest;newEdgeStyle={&quot;edgeStyle&quot;:&quot;elbowEdgeStyle&quot;,&quot;elbow&quot;:&quot;vertical&quot;,&quot;curved&quot;:0,&quot;rounded&quot;:0};fontSize=13;" parent="FSY1TfLAaGCYwKfoI0pf-1" vertex="1">&#xa;          <mxGeometry x="300" y="170" width="100" height="1310" as="geometry"/>&#xa;        </mxCell>&#xa;        <mxCell id="FSY1TfLAaGCYwKfoI0pf-4" value="Server (Java Spring)" style="shape=umlLifeline;perimeter=lifelinePerimeter;whiteSpace=wrap;html=1;container=1;dropTarget=0;collapsible=0;recursiveResize=0;outlineConnect=0;portConstraint=eastwest;newEdgeStyle={&quot;edgeStyle&quot;:&quot;elbowEdgeStyle&quot;,&quot;elbow&quot;:&quot;vertical&quot;,&quot;curved&quot;:0,&quot;rounded&quot;:0};gradientColor=none;fontSize=13;" parent="FSY1TfLAaGCYwKfoI0pf-1" vertex="1">&#xa;          <mxGeometry x="540" y="170" width="100" height="1310" as="geometry"/>&#xa;        </mxCell>&#xa;        <mxCell id="FSY1TfLAaGCYwKfoI0pf-5" value="&lt;font style=&quot;font-size: 13px;&quot;&gt;Aws (Cognito)&lt;/font&gt;" style="ellipse;shape=cloud;whiteSpace=wrap;html=1;fontSize=13;" parent="FSY1TfLAaGCYwKfoI0pf-1" vertex="1">&#xa;          <mxGeometry x="790" y="130" width="180" height="90" as="geometry"/>&#xa;        </mxCell>&#xa;        <mxCell id="FSY1TfLAaGCYwKfoI0pf-6" value="User" style="text;html=1;align=center;verticalAlign=middle;resizable=0;points=[];autosize=1;strokeColor=none;fillColor=none;fontSize=13;" parent="FSY1TfLAaGCYwKfoI0pf-1" vertex="1">&#xa;          <mxGeometry x="10" y="170" width="50" height="30" as="geometry"/>&#xa;        </mxCell>&#xa;        <mxCell id="FSY1TfLAaGCYwKfoI0pf-7" value="" style="endArrow=classic;html=1;rounded=0;fontSize=13;" parent="FSY1TfLAaGCYwKfoI0pf-1" edge="1">&#xa;          <mxGeometry width="50" height="50" relative="1" as="geometry">&#xa;            <mxPoint x="90" y="245" as="sourcePoint"/>&#xa;            <mxPoint x="349.5" y="245" as="targetPoint"/>&#xa;          </mxGeometry>&#xa;        </mxCell>&#xa;        <mxCell id="FSY1TfLAaGCYwKfoI0pf-8" value="Enable/Disable User" style="edgeLabel;html=1;align=center;verticalAlign=middle;resizable=0;points=[];fontSize=13;" parent="FSY1TfLAaGCYwKfoI0pf-7" vertex="1" connectable="0">&#xa;          <mxGeometry x="-0.0983" y="-1" relative="1" as="geometry">&#xa;            <mxPoint x="-20" y="-2" as="offset"/>&#xa;          </mxGeometry>&#xa;        </mxCell>&#xa;        <mxCell id="FSY1TfLAaGCYwKfoI0pf-9" value="" style="endArrow=none;dashed=1;html=1;dashPattern=1 3;strokeWidth=2;rounded=0;entryX=0.55;entryY=0.95;entryDx=0;entryDy=0;entryPerimeter=0;fontSize=13;" parent="FSY1TfLAaGCYwKfoI0pf-1" target="FSY1TfLAaGCYwKfoI0pf-5" edge="1">&#xa;          <mxGeometry width="50" height="50" relative="1" as="geometry">&#xa;            <mxPoint x="889" y="1480" as="sourcePoint"/>&#xa;            <mxPoint x="930" y="230" as="targetPoint"/>&#xa;          </mxGeometry>&#xa;        </mxCell>&#xa;        <mxCell id="FSY1TfLAaGCYwKfoI0pf-10" value="" style="endArrow=classic;html=1;rounded=0;fontSize=13;" parent="FSY1TfLAaGCYwKfoI0pf-1" edge="1">&#xa;          <mxGeometry width="50" height="50" relative="1" as="geometry">&#xa;            <mxPoint x="890" y="470" as="sourcePoint"/>&#xa;            <mxPoint x="590" y="470" as="targetPoint"/>&#xa;          </mxGeometry>&#xa;        </mxCell>&#xa;        <mxCell id="FSY1TfLAaGCYwKfoI0pf-11" value="Success Response" style="edgeLabel;html=1;align=center;verticalAlign=middle;resizable=0;points=[];fontSize=13;" parent="FSY1TfLAaGCYwKfoI0pf-10" vertex="1" connectable="0">&#xa;          <mxGeometry x="-0.0037" y="2" relative="1" as="geometry">&#xa;            <mxPoint x="-8" y="-3" as="offset"/>&#xa;          </mxGeometry>&#xa;        </mxCell>&#xa;        <mxCell id="FSY1TfLAaGCYwKfoI0pf-14" value="&lt;h1&gt;&lt;font style=&quot;font-size: 24px;&quot;&gt;Enable/Disable User&lt;/font&gt;&lt;/h1&gt;" style="text;html=1;strokeColor=none;fillColor=none;align=center;verticalAlign=middle;whiteSpace=wrap;rounded=0;" parent="FSY1TfLAaGCYwKfoI0pf-1" vertex="1">&#xa;          <mxGeometry x="380" y="40" width="270" height="60" as="geometry"/>&#xa;        </mxCell>&#xa;        <mxCell id="FSY1TfLAaGCYwKfoI0pf-15" value="Alternative" style="shape=umlFrame;whiteSpace=wrap;html=1;pointerEvents=0;fontSize=13;" parent="FSY1TfLAaGCYwKfoI0pf-1" vertex="1">&#xa;          <mxGeometry x="290" y="420" width="660" height="1020" as="geometry"/>&#xa;        </mxCell>&#xa;        <mxCell id="FSY1TfLAaGCYwKfoI0pf-16" value="" style="endArrow=classic;html=1;rounded=0;fontSize=13;" parent="FSY1TfLAaGCYwKfoI0pf-1" edge="1">&#xa;          <mxGeometry width="50" height="50" relative="1" as="geometry">&#xa;            <mxPoint x="890" y="1264" as="sourcePoint"/>&#xa;            <mxPoint x="590" y="1265" as="targetPoint"/>&#xa;          </mxGeometry>&#xa;        </mxCell>&#xa;        <mxCell id="FSY1TfLAaGCYwKfoI0pf-17" value="Error Response with message" style="edgeLabel;html=1;align=center;verticalAlign=middle;resizable=0;points=[];fontSize=13;" parent="FSY1TfLAaGCYwKfoI0pf-16" vertex="1" connectable="0">&#xa;          <mxGeometry x="-0.0037" y="2" relative="1" as="geometry">&#xa;            <mxPoint x="-19" y="-2" as="offset"/>&#xa;          </mxGeometry>&#xa;        </mxCell>&#xa;        <mxCell id="FSY1TfLAaGCYwKfoI0pf-18" value="" style="endArrow=classic;html=1;rounded=0;fontSize=13;" parent="FSY1TfLAaGCYwKfoI0pf-1" edge="1">&#xa;          <mxGeometry width="50" height="50" relative="1" as="geometry">&#xa;            <mxPoint x="350" y="1400" as="sourcePoint"/>&#xa;            <mxPoint x="89.5" y="1400" as="targetPoint"/>&#xa;          </mxGeometry>&#xa;        </mxCell>&#xa;        <mxCell id="FSY1TfLAaGCYwKfoI0pf-19" value="Display Error message" style="edgeLabel;html=1;align=center;verticalAlign=middle;resizable=0;points=[];fontSize=13;" parent="FSY1TfLAaGCYwKfoI0pf-18" vertex="1" connectable="0">&#xa;          <mxGeometry x="0.0902" y="1" relative="1" as="geometry">&#xa;            <mxPoint x="-20" y="-1" as="offset"/>&#xa;          </mxGeometry>&#xa;        </mxCell>&#xa;        <mxCell id="FSY1TfLAaGCYwKfoI0pf-20" value="Enable/Disable User Request&amp;nbsp;" style="endArrow=classic;html=1;rounded=0;fontSize=13;" parent="FSY1TfLAaGCYwKfoI0pf-1" edge="1">&#xa;          <mxGeometry x="-0.0747" width="50" height="50" relative="1" as="geometry">&#xa;            <mxPoint x="348.5" y="298" as="sourcePoint"/>&#xa;            <mxPoint x="589.5" y="298" as="targetPoint"/>&#xa;            <mxPoint x="1" as="offset"/>&#xa;          </mxGeometry>&#xa;        </mxCell>&#xa;        <mxCell id="FSY1TfLAaGCYwKfoI0pf-21" value="" style="endArrow=none;dashed=1;html=1;dashPattern=1 3;strokeWidth=2;rounded=0;entryX=1.002;entryY=0.658;entryDx=0;entryDy=0;entryPerimeter=0;exitX=0;exitY=0.627;exitDx=0;exitDy=0;exitPerimeter=0;fontSize=13;" parent="FSY1TfLAaGCYwKfoI0pf-1" edge="1">&#xa;          <mxGeometry width="50" height="50" relative="1" as="geometry">&#xa;            <mxPoint x="290" y="1207.049" as="sourcePoint"/>&#xa;            <mxPoint x="951.2799999999997" y="1208.876" as="targetPoint"/>&#xa;          </mxGeometry>&#xa;        </mxCell>&#xa;        <mxCell id="FSY1TfLAaGCYwKfoI0pf-22" value="Enable/Disable User in an AWS Cognito&lt;br style=&quot;border-color: var(--border-color); font-size: 13px;&quot;&gt;&amp;nbsp;User Pool using AWS SDKs" style="endArrow=classic;html=1;rounded=0;fontSize=13;" parent="FSY1TfLAaGCYwKfoI0pf-1" edge="1">&#xa;          <mxGeometry x="0.0017" width="50" height="50" relative="1" as="geometry">&#xa;            <mxPoint x="590.5" y="359" as="sourcePoint"/>&#xa;            <mxPoint x="890" y="359" as="targetPoint"/>&#xa;            <mxPoint as="offset"/>&#xa;          </mxGeometry>&#xa;        </mxCell>&#xa;        <mxCell id="FSY1TfLAaGCYwKfoI0pf-24" value="Error Response" style="endArrow=classic;html=1;rounded=0;fontSize=13;" parent="FSY1TfLAaGCYwKfoI0pf-1" edge="1">&#xa;          <mxGeometry x="0.0041" width="50" height="50" relative="1" as="geometry">&#xa;            <mxPoint x="591" y="1335" as="sourcePoint"/>&#xa;            <mxPoint x="349.5" y="1335" as="targetPoint"/>&#xa;            <mxPoint as="offset"/>&#xa;          </mxGeometry>&#xa;        </mxCell>&#xa;        <mxCell id="kHh4Bhq1hAh0d16iMOqG-0" value="Database" style="shape=datastore;whiteSpace=wrap;html=1;fontSize=13;" parent="FSY1TfLAaGCYwKfoI0pf-1" vertex="1">&#xa;          <mxGeometry x="1119" y="150" width="60" height="60" as="geometry"/>&#xa;        </mxCell>&#xa;        <mxCell id="kHh4Bhq1hAh0d16iMOqG-1" value="" style="endArrow=none;dashed=1;html=1;dashPattern=1 3;strokeWidth=2;rounded=0;entryX=0.55;entryY=0.95;entryDx=0;entryDy=0;entryPerimeter=0;fontSize=13;" parent="FSY1TfLAaGCYwKfoI0pf-1" edge="1">&#xa;          <mxGeometry width="50" height="50" relative="1" as="geometry">&#xa;            <mxPoint x="1150" y="1480" as="sourcePoint"/>&#xa;            <mxPoint x="1150" y="205" as="targetPoint"/>&#xa;          </mxGeometry>&#xa;        </mxCell>&#xa;        <mxCell id="kHh4Bhq1hAh0d16iMOqG-2" value="Enable/Disable user in the &quot;User&quot;&lt;br style=&quot;font-size: 13px;&quot;&gt;&amp;nbsp; table in the database" style="endArrow=classic;html=1;rounded=0;fontSize=13;" parent="FSY1TfLAaGCYwKfoI0pf-1" edge="1">&#xa;          <mxGeometry x="-0.4612" width="50" height="50" relative="1" as="geometry">&#xa;            <mxPoint x="589.5" y="552" as="sourcePoint"/>&#xa;            <mxPoint x="1150" y="552" as="targetPoint"/>&#xa;            <mxPoint as="offset"/>&#xa;          </mxGeometry>&#xa;        </mxCell>&#xa;        <mxCell id="i0GjL98wYspxu8GWnNLj-0" value="if(valid user data)" style="text;html=1;align=center;verticalAlign=middle;resizable=0;points=[];autosize=1;strokeColor=none;fillColor=none;fontSize=13;" parent="FSY1TfLAaGCYwKfoI0pf-1" vertex="1">&#xa;          <mxGeometry x="280" y="452" width="120" height="30" as="geometry"/>&#xa;        </mxCell>&#xa;        <mxCell id="m0ciz0Z_edwp51S8xCtw-3" value="&lt;br style=&quot;font-size: 13px;&quot;&gt;Retrieve user data from the &quot;User,&quot;&lt;br style=&quot;font-size: 13px;&quot;&gt;&amp;nbsp;&quot;UserRoleMap,&quot; &quot;UserGroupMap,&quot;&amp;nbsp;and&lt;br&gt;&amp;nbsp;&quot;UserOrganizationMap&quot; tables in the database" style="endArrow=classic;html=1;rounded=0;fontSize=13;" parent="FSY1TfLAaGCYwKfoI0pf-1" edge="1">&#xa;          <mxGeometry x="-0.463" y="3" width="50" height="50" relative="1" as="geometry">&#xa;            <mxPoint x="589.5" y="880" as="sourcePoint"/>&#xa;            <mxPoint x="1150" y="880" as="targetPoint"/>&#xa;            <mxPoint x="1" as="offset"/>&#xa;          </mxGeometry>&#xa;        </mxCell>&#xa;        <mxCell id="m0ciz0Z_edwp51S8xCtw-4" value="" style="endArrow=classic;html=1;rounded=0;fontSize=13;" parent="FSY1TfLAaGCYwKfoI0pf-1" edge="1">&#xa;          <mxGeometry width="50" height="50" relative="1" as="geometry">&#xa;            <mxPoint x="1150" y="977" as="sourcePoint"/>&#xa;            <mxPoint x="589.5" y="975" as="targetPoint"/>&#xa;          </mxGeometry>&#xa;        </mxCell>&#xa;        <mxCell id="m0ciz0Z_edwp51S8xCtw-5" value="Success Response with Users data" style="edgeLabel;html=1;align=center;verticalAlign=middle;resizable=0;points=[];fontSize=13;" parent="m0ciz0Z_edwp51S8xCtw-4" vertex="1" connectable="0">&#xa;          <mxGeometry x="-0.0037" y="2" relative="1" as="geometry">&#xa;            <mxPoint x="-138" y="-3" as="offset"/>&#xa;          </mxGeometry>&#xa;        </mxCell>&#xa;        <mxCell id="m0ciz0Z_edwp51S8xCtw-6" value="Retrieve Users Request" style="endArrow=classic;html=1;rounded=0;fontSize=13;" parent="FSY1TfLAaGCYwKfoI0pf-1" edge="1">&#xa;          <mxGeometry x="0.0021" width="50" height="50" relative="1" as="geometry">&#xa;            <mxPoint x="349.5" y="789" as="sourcePoint"/>&#xa;            <mxPoint x="590" y="789" as="targetPoint"/>&#xa;            <mxPoint as="offset"/>&#xa;          </mxGeometry>&#xa;        </mxCell>&#xa;        <mxCell id="m0ciz0Z_edwp51S8xCtw-7" value="Success Response" style="endArrow=classic;html=1;rounded=0;fontSize=13;" parent="FSY1TfLAaGCYwKfoI0pf-1" edge="1">&#xa;          <mxGeometry x="0.4639" y="1" width="50" height="50" relative="1" as="geometry">&#xa;            <mxPoint x="1151" y="631" as="sourcePoint"/>&#xa;            <mxPoint x="589.5" y="631" as="targetPoint"/>&#xa;            <mxPoint as="offset"/>&#xa;          </mxGeometry>&#xa;        </mxCell>&#xa;        <mxCell id="m0ciz0Z_edwp51S8xCtw-8" value="Success Response" style="endArrow=classic;html=1;rounded=0;fontSize=13;" parent="FSY1TfLAaGCYwKfoI0pf-1" edge="1">&#xa;          <mxGeometry x="0.1642" width="50" height="50" relative="1" as="geometry">&#xa;            <mxPoint x="590" y="708" as="sourcePoint"/>&#xa;            <mxPoint x="349.5" y="708" as="targetPoint"/>&#xa;            <mxPoint as="offset"/>&#xa;          </mxGeometry>&#xa;        </mxCell>&#xa;        <mxCell id="jRWKPGryHpUgcZxtl2Lo-0" value="" style="endArrow=classic;html=1;rounded=0;fontSize=13;" parent="FSY1TfLAaGCYwKfoI0pf-1" edge="1">&#xa;          <mxGeometry width="50" height="50" relative="1" as="geometry">&#xa;            <mxPoint x="350" y="1140" as="sourcePoint"/>&#xa;            <mxPoint x="89.5" y="1140" as="targetPoint"/>&#xa;          </mxGeometry>&#xa;        </mxCell>&#xa;        <mxCell id="jRWKPGryHpUgcZxtl2Lo-1" value="Display the updated user list " style="edgeLabel;html=1;align=center;verticalAlign=middle;resizable=0;points=[];fontSize=13;" parent="jRWKPGryHpUgcZxtl2Lo-0" vertex="1" connectable="0">&#xa;          <mxGeometry x="-0.0173" y="-1" relative="1" as="geometry">&#xa;            <mxPoint x="-27" y="1" as="offset"/>&#xa;          </mxGeometry>&#xa;        </mxCell>&#xa;        <mxCell id="jRWKPGryHpUgcZxtl2Lo-2" value="Retrieved Users Response" style="endArrow=classic;html=1;rounded=0;fontSize=13;" parent="FSY1TfLAaGCYwKfoI0pf-1" edge="1">&#xa;          <mxGeometry x="0.0041" width="50" height="50" relative="1" as="geometry">&#xa;            <mxPoint x="591" y="1057" as="sourcePoint"/>&#xa;            <mxPoint x="349.5" y="1057" as="targetPoint"/>&#xa;            <mxPoint as="offset"/>&#xa;          </mxGeometry>&#xa;        </mxCell>&#xa;      </root>&#xa;    </mxGraphModel>&#xa;  </diagram><diagram name="Retrieve" id="rsCJib-rRvHVJ03hmdxr"><mxGraphModel dx="894" dy="446" grid="1" gridSize="10" guides="1" tooltips="1" connect="1" arrows="1" fold="1" page="1" pageScale="1" pageWidth="827" pageHeight="1169" math="0" shadow="0"><root><mxCell id="Ygvm-nlBy09d9jRJJ25b-0"/><mxCell id="Ygvm-nlBy09d9jRJJ25b-1" parent="Ygvm-nlBy09d9jRJJ25b-0"/><mxCell id="Ygvm-nlBy09d9jRJJ25b-2" value="" style="shape=umlLifeline;perimeter=lifelinePerimeter;whiteSpace=wrap;html=1;container=1;dropTarget=0;collapsible=0;recursiveResize=0;outlineConnect=0;portConstraint=eastwest;newEdgeStyle={&quot;edgeStyle&quot;:&quot;elbowEdgeStyle&quot;,&quot;elbow&quot;:&quot;vertical&quot;,&quot;curved&quot;:0,&quot;rounded&quot;:0};participant=umlActor;fontSize=13;" parent="Ygvm-nlBy09d9jRJJ25b-1" vertex="1"><mxGeometry x="80" y="160" width="20" height="520" as="geometry"/></mxCell><mxCell id="Ygvm-nlBy09d9jRJJ25b-3" value="Client(ReactJs)" style="shape=umlLifeline;perimeter=lifelinePerimeter;whiteSpace=wrap;html=1;container=1;dropTarget=0;collapsible=0;recursiveResize=0;outlineConnect=0;portConstraint=eastwest;newEdgeStyle={&quot;edgeStyle&quot;:&quot;elbowEdgeStyle&quot;,&quot;elbow&quot;:&quot;vertical&quot;,&quot;curved&quot;:0,&quot;rounded&quot;:0};fontSize=13;" parent="Ygvm-nlBy09d9jRJJ25b-1" vertex="1"><mxGeometry x="300" y="170" width="100" height="510" as="geometry"/></mxCell><mxCell id="Ygvm-nlBy09d9jRJJ25b-4" value="Server (Java Spring)" style="shape=umlLifeline;perimeter=lifelinePerimeter;whiteSpace=wrap;html=1;container=1;dropTarget=0;collapsible=0;recursiveResize=0;outlineConnect=0;portConstraint=eastwest;newEdgeStyle={&quot;edgeStyle&quot;:&quot;elbowEdgeStyle&quot;,&quot;elbow&quot;:&quot;vertical&quot;,&quot;curved&quot;:0,&quot;rounded&quot;:0};gradientColor=none;fontSize=13;" parent="Ygvm-nlBy09d9jRJJ25b-1" vertex="1"><mxGeometry x="580" y="170" width="100" height="510" as="geometry"/></mxCell><mxCell id="Ygvm-nlBy09d9jRJJ25b-6" value="User" style="text;html=1;align=center;verticalAlign=middle;resizable=0;points=[];autosize=1;strokeColor=none;fillColor=none;fontSize=13;" parent="Ygvm-nlBy09d9jRJJ25b-1" vertex="1"><mxGeometry x="10" y="170" width="50" height="30" as="geometry"/></mxCell><mxCell id="Ygvm-nlBy09d9jRJJ25b-7" value="" style="endArrow=classic;html=1;rounded=0;fontSize=13;" parent="Ygvm-nlBy09d9jRJJ25b-1" edge="1"><mxGeometry width="50" height="50" relative="1" as="geometry"><mxPoint x="90" y="251" as="sourcePoint"/><mxPoint x="349.5" y="251" as="targetPoint"/></mxGeometry></mxCell><mxCell id="Ygvm-nlBy09d9jRJJ25b-8" value="Retrieve Users Req" style="edgeLabel;html=1;align=center;verticalAlign=middle;resizable=0;points=[];fontSize=13;" parent="Ygvm-nlBy09d9jRJJ25b-7" vertex="1" connectable="0"><mxGeometry x="-0.0983" y="-1" relative="1" as="geometry"><mxPoint x="-22" y="-2" as="offset"/></mxGeometry></mxCell><mxCell id="Ygvm-nlBy09d9jRJJ25b-14" value="&lt;h1&gt;&lt;font style=&quot;font-size: 24px;&quot;&gt;Retrieve Users&lt;/font&gt;&lt;/h1&gt;" style="text;html=1;strokeColor=none;fillColor=none;align=center;verticalAlign=middle;whiteSpace=wrap;rounded=0;" parent="Ygvm-nlBy09d9jRJJ25b-1" vertex="1"><mxGeometry x="380" y="40" width="270" height="60" as="geometry"/></mxCell><mxCell id="Ygvm-nlBy09d9jRJJ25b-20" value="Retrieve Users Request&amp;nbsp;" style="endArrow=classic;html=1;rounded=0;fontSize=13;" parent="Ygvm-nlBy09d9jRJJ25b-1" edge="1"><mxGeometry x="-0.0747" width="50" height="50" relative="1" as="geometry"><mxPoint x="349.5" y="322" as="sourcePoint"/><mxPoint x="629.5" y="322" as="targetPoint"/><mxPoint x="1" as="offset"/></mxGeometry></mxCell><mxCell id="Ygvm-nlBy09d9jRJJ25b-25" value="Database" style="shape=datastore;whiteSpace=wrap;html=1;fontSize=13;" parent="Ygvm-nlBy09d9jRJJ25b-1" vertex="1"><mxGeometry x="889" y="150" width="60" height="60" as="geometry"/></mxCell><mxCell id="Ygvm-nlBy09d9jRJJ25b-26" value="" style="endArrow=none;dashed=1;html=1;dashPattern=1 3;strokeWidth=2;rounded=0;entryX=0.55;entryY=0.95;entryDx=0;entryDy=0;entryPerimeter=0;fontSize=13;" parent="Ygvm-nlBy09d9jRJJ25b-1" edge="1"><mxGeometry width="50" height="50" relative="1" as="geometry"><mxPoint x="920" y="680" as="sourcePoint"/><mxPoint x="920" y="205" as="targetPoint"/></mxGeometry></mxCell><mxCell id="u_agII-gMyaOvdTgPbJJ-0" value="&lt;br style=&quot;border-color: var(--border-color); font-size: 13px;&quot;&gt;Retrieve user data from the &quot;User,&quot;&lt;br style=&quot;border-color: var(--border-color); font-size: 13px;&quot;&gt;&amp;nbsp;&quot;UserRoleMap,&quot; &quot;UserGroupMap,&quot;&amp;nbsp;and&lt;br&gt;&amp;nbsp;&quot;UserOrganizationMap&quot; tables in the database" style="endArrow=classic;html=1;rounded=0;fontSize=13;" parent="Ygvm-nlBy09d9jRJJ25b-1" edge="1"><mxGeometry x="-0.0345" y="7" width="50" height="50" relative="1" as="geometry"><mxPoint x="630" y="397" as="sourcePoint"/><mxPoint x="920" y="397" as="targetPoint"/><mxPoint as="offset"/></mxGeometry></mxCell><mxCell id="u_agII-gMyaOvdTgPbJJ-1" value="" style="endArrow=classic;html=1;rounded=0;fontSize=13;" parent="Ygvm-nlBy09d9jRJJ25b-1" edge="1"><mxGeometry width="50" height="50" relative="1" as="geometry"><mxPoint x="920" y="483" as="sourcePoint"/><mxPoint x="630" y="483" as="targetPoint"/></mxGeometry></mxCell><mxCell id="u_agII-gMyaOvdTgPbJJ-2" value="Success Response with Users data" style="edgeLabel;html=1;align=center;verticalAlign=middle;resizable=0;points=[];fontSize=13;" parent="u_agII-gMyaOvdTgPbJJ-1" vertex="1" connectable="0"><mxGeometry x="-0.0037" y="2" relative="1" as="geometry"><mxPoint x="2" y="-3" as="offset"/></mxGeometry></mxCell><mxCell id="u_agII-gMyaOvdTgPbJJ-3" value="Retrieved Users Response" style="endArrow=classic;html=1;rounded=0;fontSize=13;" parent="Ygvm-nlBy09d9jRJJ25b-1" edge="1"><mxGeometry x="0.0766" y="1" width="50" height="50" relative="1" as="geometry"><mxPoint x="630" y="560" as="sourcePoint"/><mxPoint x="349.5" y="560" as="targetPoint"/><mxPoint as="offset"/></mxGeometry></mxCell><mxCell id="u_agII-gMyaOvdTgPbJJ-4" value="" style="endArrow=classic;html=1;rounded=0;fontSize=13;" parent="Ygvm-nlBy09d9jRJJ25b-1" edge="1"><mxGeometry width="50" height="50" relative="1" as="geometry"><mxPoint x="350" y="627" as="sourcePoint"/><mxPoint x="89.5" y="627" as="targetPoint"/></mxGeometry></mxCell><mxCell id="u_agII-gMyaOvdTgPbJJ-5" value="Display the user list" style="edgeLabel;html=1;align=center;verticalAlign=middle;resizable=0;points=[];fontSize=13;" parent="u_agII-gMyaOvdTgPbJJ-4" vertex="1" connectable="0"><mxGeometry x="-0.0173" y="-1" relative="1" as="geometry"><mxPoint x="-30" y="1" as="offset"/></mxGeometry></mxCell></root></mxGraphModel></diagram><diagram id="xZ4P8Mzq84FLDdpUAPYY" name="Class Diagram">&#xa;    <mxGraphModel dx="1434" dy="843" grid="1" gridSize="10" guides="1" tooltips="1" connect="1" arrows="1" fold="1" page="1" pageScale="1" pageWidth="827" pageHeight="1169" math="0" shadow="0">&#xa;      <root>&#xa;        <mxCell id="0"/>&#xa;        <mxCell id="1" parent="0"/>&#xa;        <mxCell id="ZVPBmknPE-tac52ABBen-2" value="User" style="swimlane;fontStyle=0;childLayout=stackLayout;horizontal=1;startSize=26;fillColor=none;horizontalStack=0;resizeParent=1;resizeParentMax=0;resizeLast=0;collapsible=1;marginBottom=0;whiteSpace=wrap;html=1;" parent="1" vertex="1">&#xa;          <mxGeometry x="130" y="160" width="140" height="390" as="geometry"/>&#xa;        </mxCell>&#xa;        <mxCell id="ZVPBmknPE-tac52ABBen-3" value="+ id: Long" style="text;strokeColor=none;fillColor=none;align=left;verticalAlign=top;spacingLeft=4;spacingRight=4;overflow=hidden;rotatable=0;points=[[0,0.5],[1,0.5]];portConstraint=eastwest;whiteSpace=wrap;html=1;" parent="ZVPBmknPE-tac52ABBen-2" vertex="1">&#xa;          <mxGeometry y="26" width="140" height="26" as="geometry"/>&#xa;        </mxCell>&#xa;        <mxCell id="biaJ2RfBLmbrzt-ByHiE-1" value="+ uniqueId: UUID" style="text;strokeColor=none;fillColor=none;align=left;verticalAlign=top;spacingLeft=4;spacingRight=4;overflow=hidden;rotatable=0;points=[[0,0.5],[1,0.5]];portConstraint=eastwest;whiteSpace=wrap;html=1;" parent="ZVPBmknPE-tac52ABBen-2" vertex="1">&#xa;          <mxGeometry y="52" width="140" height="26" as="geometry"/>&#xa;        </mxCell>&#xa;        <mxCell id="ZVPBmknPE-tac52ABBen-4" value="+ idmUserId: String" style="text;strokeColor=none;fillColor=none;align=left;verticalAlign=top;spacingLeft=4;spacingRight=4;overflow=hidden;rotatable=0;points=[[0,0.5],[1,0.5]];portConstraint=eastwest;whiteSpace=wrap;html=1;" parent="ZVPBmknPE-tac52ABBen-2" vertex="1">&#xa;          <mxGeometry y="78" width="140" height="26" as="geometry"/>&#xa;        </mxCell>&#xa;        <mxCell id="UqrGT-jKJ6F6nwKbvBD5-2" value="+ idmInfoId: Long" style="text;strokeColor=none;fillColor=none;align=left;verticalAlign=top;spacingLeft=4;spacingRight=4;overflow=hidden;rotatable=0;points=[[0,0.5],[1,0.5]];portConstraint=eastwest;whiteSpace=wrap;html=1;" parent="ZVPBmknPE-tac52ABBen-2" vertex="1">&#xa;          <mxGeometry y="104" width="140" height="26" as="geometry"/>&#xa;        </mxCell>&#xa;        <mxCell id="ZVPBmknPE-tac52ABBen-5" value="+ firstName: String" style="text;strokeColor=none;fillColor=none;align=left;verticalAlign=top;spacingLeft=4;spacingRight=4;overflow=hidden;rotatable=0;points=[[0,0.5],[1,0.5]];portConstraint=eastwest;whiteSpace=wrap;html=1;" parent="ZVPBmknPE-tac52ABBen-2" vertex="1">&#xa;          <mxGeometry y="130" width="140" height="26" as="geometry"/>&#xa;        </mxCell>&#xa;        <mxCell id="BgHXaJM5m16Xh9VHVzqE-1" value="+ lastName: String" style="text;strokeColor=none;fillColor=none;align=left;verticalAlign=top;spacingLeft=4;spacingRight=4;overflow=hidden;rotatable=0;points=[[0,0.5],[1,0.5]];portConstraint=eastwest;whiteSpace=wrap;html=1;" parent="ZVPBmknPE-tac52ABBen-2" vertex="1">&#xa;          <mxGeometry y="156" width="140" height="26" as="geometry"/>&#xa;        </mxCell>&#xa;        <mxCell id="ZVPBmknPE-tac52ABBen-6" value="+ email: String" style="text;strokeColor=none;fillColor=none;align=left;verticalAlign=top;spacingLeft=4;spacingRight=4;overflow=hidden;rotatable=0;points=[[0,0.5],[1,0.5]];portConstraint=eastwest;whiteSpace=wrap;html=1;" parent="ZVPBmknPE-tac52ABBen-2" vertex="1">&#xa;          <mxGeometry y="182" width="140" height="26" as="geometry"/>&#xa;        </mxCell>&#xa;        <mxCell id="ZVPBmknPE-tac52ABBen-7" value="+ phoneNumber: String" style="text;strokeColor=none;fillColor=none;align=left;verticalAlign=top;spacingLeft=4;spacingRight=4;overflow=hidden;rotatable=0;points=[[0,0.5],[1,0.5]];portConstraint=eastwest;whiteSpace=wrap;html=1;" parent="ZVPBmknPE-tac52ABBen-2" vertex="1">&#xa;          <mxGeometry y="208" width="140" height="26" as="geometry"/>&#xa;        </mxCell>&#xa;        <mxCell id="znIrX5ZRLewHMzoAKsvw-1" value="+ status: String" style="text;strokeColor=none;fillColor=none;align=left;verticalAlign=top;spacingLeft=4;spacingRight=4;overflow=hidden;rotatable=0;points=[[0,0.5],[1,0.5]];portConstraint=eastwest;whiteSpace=wrap;html=1;" parent="ZVPBmknPE-tac52ABBen-2" vertex="1">&#xa;          <mxGeometry y="234" width="140" height="26" as="geometry"/>&#xa;        </mxCell>&#xa;        <mxCell id="ZVPBmknPE-tac52ABBen-8" value="+ createdOn: instant" style="text;strokeColor=none;fillColor=none;align=left;verticalAlign=top;spacingLeft=4;spacingRight=4;overflow=hidden;rotatable=0;points=[[0,0.5],[1,0.5]];portConstraint=eastwest;whiteSpace=wrap;html=1;" parent="ZVPBmknPE-tac52ABBen-2" vertex="1">&#xa;          <mxGeometry y="260" width="140" height="26" as="geometry"/>&#xa;        </mxCell>&#xa;        <mxCell id="ZVPBmknPE-tac52ABBen-9" value="+ modifiedOn: Instant" style="text;strokeColor=none;fillColor=none;align=left;verticalAlign=top;spacingLeft=4;spacingRight=4;overflow=hidden;rotatable=0;points=[[0,0.5],[1,0.5]];portConstraint=eastwest;whiteSpace=wrap;html=1;" parent="ZVPBmknPE-tac52ABBen-2" vertex="1">&#xa;          <mxGeometry y="286" width="140" height="26" as="geometry"/>&#xa;        </mxCell>&#xa;        <mxCell id="TBrgbZqnVFvVAXqrrgGo-23" value="+ userGroupMap" style="text;strokeColor=#666666;fillColor=#f5f5f5;align=left;verticalAlign=top;spacingLeft=4;spacingRight=4;overflow=hidden;rotatable=0;points=[[0,0.5],[1,0.5]];portConstraint=eastwest;whiteSpace=wrap;html=1;fontColor=#333333;" parent="ZVPBmknPE-tac52ABBen-2" vertex="1">&#xa;          <mxGeometry y="312" width="140" height="26" as="geometry"/>&#xa;        </mxCell>&#xa;        <mxCell id="TBrgbZqnVFvVAXqrrgGo-24" value="+ userRoleMap" style="text;strokeColor=#666666;fillColor=#f5f5f5;align=left;verticalAlign=top;spacingLeft=4;spacingRight=4;overflow=hidden;rotatable=0;points=[[0,0.5],[1,0.5]];portConstraint=eastwest;whiteSpace=wrap;html=1;fontColor=#333333;" parent="ZVPBmknPE-tac52ABBen-2" vertex="1">&#xa;          <mxGeometry y="338" width="140" height="26" as="geometry"/>&#xa;        </mxCell>&#xa;        <mxCell id="TBrgbZqnVFvVAXqrrgGo-25" value="+ userOrganizationMap" style="text;strokeColor=#666666;fillColor=#f5f5f5;align=left;verticalAlign=top;spacingLeft=4;spacingRight=4;overflow=hidden;rotatable=0;points=[[0,0.5],[1,0.5]];portConstraint=eastwest;whiteSpace=wrap;html=1;fontColor=#333333;" parent="ZVPBmknPE-tac52ABBen-2" vertex="1">&#xa;          <mxGeometry y="364" width="140" height="26" as="geometry"/>&#xa;        </mxCell>&#xa;        <mxCell id="BgHXaJM5m16Xh9VHVzqE-2" value="Group" style="swimlane;fontStyle=0;childLayout=stackLayout;horizontal=1;startSize=26;fillColor=none;horizontalStack=0;resizeParent=1;resizeParentMax=0;resizeLast=0;collapsible=1;marginBottom=0;whiteSpace=wrap;html=1;" parent="1" vertex="1">&#xa;          <mxGeometry x="650" y="160" width="140" height="156" as="geometry"/>&#xa;        </mxCell>&#xa;        <mxCell id="BgHXaJM5m16Xh9VHVzqE-3" value="+ id: Long" style="text;strokeColor=none;fillColor=none;align=left;verticalAlign=top;spacingLeft=4;spacingRight=4;overflow=hidden;rotatable=0;points=[[0,0.5],[1,0.5]];portConstraint=eastwest;whiteSpace=wrap;html=1;" parent="BgHXaJM5m16Xh9VHVzqE-2" vertex="1">&#xa;          <mxGeometry y="26" width="140" height="26" as="geometry"/>&#xa;        </mxCell>&#xa;        <mxCell id="BgHXaJM5m16Xh9VHVzqE-5" value="+ name: String" style="text;strokeColor=none;fillColor=none;align=left;verticalAlign=top;spacingLeft=4;spacingRight=4;overflow=hidden;rotatable=0;points=[[0,0.5],[1,0.5]];portConstraint=eastwest;whiteSpace=wrap;html=1;" parent="BgHXaJM5m16Xh9VHVzqE-2" vertex="1">&#xa;          <mxGeometry y="52" width="140" height="26" as="geometry"/>&#xa;        </mxCell>&#xa;        <mxCell id="BgHXaJM5m16Xh9VHVzqE-6" value="+ description: String" style="text;strokeColor=none;fillColor=none;align=left;verticalAlign=top;spacingLeft=4;spacingRight=4;overflow=hidden;rotatable=0;points=[[0,0.5],[1,0.5]];portConstraint=eastwest;whiteSpace=wrap;html=1;" parent="BgHXaJM5m16Xh9VHVzqE-2" vertex="1">&#xa;          <mxGeometry y="78" width="140" height="26" as="geometry"/>&#xa;        </mxCell>&#xa;        <mxCell id="BgHXaJM5m16Xh9VHVzqE-9" value="+ createdOn: instant" style="text;strokeColor=none;fillColor=none;align=left;verticalAlign=top;spacingLeft=4;spacingRight=4;overflow=hidden;rotatable=0;points=[[0,0.5],[1,0.5]];portConstraint=eastwest;whiteSpace=wrap;html=1;" parent="BgHXaJM5m16Xh9VHVzqE-2" vertex="1">&#xa;          <mxGeometry y="104" width="140" height="26" as="geometry"/>&#xa;        </mxCell>&#xa;        <mxCell id="BgHXaJM5m16Xh9VHVzqE-10" value="+ modifiedOn: Instant" style="text;strokeColor=none;fillColor=none;align=left;verticalAlign=top;spacingLeft=4;spacingRight=4;overflow=hidden;rotatable=0;points=[[0,0.5],[1,0.5]];portConstraint=eastwest;whiteSpace=wrap;html=1;" parent="BgHXaJM5m16Xh9VHVzqE-2" vertex="1">&#xa;          <mxGeometry y="130" width="140" height="26" as="geometry"/>&#xa;        </mxCell>&#xa;        <mxCell id="BgHXaJM5m16Xh9VHVzqE-11" value="&lt;font color=&quot;#1f1e1e&quot;&gt;Organization&lt;/font&gt;" style="swimlane;fontStyle=0;childLayout=stackLayout;horizontal=1;startSize=26;fillColor=none;horizontalStack=0;resizeParent=1;resizeParentMax=0;resizeLast=0;collapsible=1;marginBottom=0;whiteSpace=wrap;html=1;" parent="1" vertex="1">&#xa;          <mxGeometry x="650" y="380" width="140" height="156" as="geometry"/>&#xa;        </mxCell>&#xa;        <mxCell id="BgHXaJM5m16Xh9VHVzqE-12" value="+ id: Long" style="text;strokeColor=none;fillColor=none;align=left;verticalAlign=top;spacingLeft=4;spacingRight=4;overflow=hidden;rotatable=0;points=[[0,0.5],[1,0.5]];portConstraint=eastwest;whiteSpace=wrap;html=1;" parent="BgHXaJM5m16Xh9VHVzqE-11" vertex="1">&#xa;          <mxGeometry y="26" width="140" height="26" as="geometry"/>&#xa;        </mxCell>&#xa;        <mxCell id="BgHXaJM5m16Xh9VHVzqE-13" value="+ name: String" style="text;strokeColor=none;fillColor=none;align=left;verticalAlign=top;spacingLeft=4;spacingRight=4;overflow=hidden;rotatable=0;points=[[0,0.5],[1,0.5]];portConstraint=eastwest;whiteSpace=wrap;html=1;" parent="BgHXaJM5m16Xh9VHVzqE-11" vertex="1">&#xa;          <mxGeometry y="52" width="140" height="26" as="geometry"/>&#xa;        </mxCell>&#xa;        <mxCell id="BgHXaJM5m16Xh9VHVzqE-14" value="+ description: String" style="text;strokeColor=none;fillColor=none;align=left;verticalAlign=top;spacingLeft=4;spacingRight=4;overflow=hidden;rotatable=0;points=[[0,0.5],[1,0.5]];portConstraint=eastwest;whiteSpace=wrap;html=1;" parent="BgHXaJM5m16Xh9VHVzqE-11" vertex="1">&#xa;          <mxGeometry y="78" width="140" height="26" as="geometry"/>&#xa;        </mxCell>&#xa;        <mxCell id="BgHXaJM5m16Xh9VHVzqE-15" value="+ createdOn: instant" style="text;strokeColor=none;fillColor=none;align=left;verticalAlign=top;spacingLeft=4;spacingRight=4;overflow=hidden;rotatable=0;points=[[0,0.5],[1,0.5]];portConstraint=eastwest;whiteSpace=wrap;html=1;" parent="BgHXaJM5m16Xh9VHVzqE-11" vertex="1">&#xa;          <mxGeometry y="104" width="140" height="26" as="geometry"/>&#xa;        </mxCell>&#xa;        <mxCell id="BgHXaJM5m16Xh9VHVzqE-16" value="+ modifiedOn: Instant" style="text;strokeColor=none;fillColor=none;align=left;verticalAlign=top;spacingLeft=4;spacingRight=4;overflow=hidden;rotatable=0;points=[[0,0.5],[1,0.5]];portConstraint=eastwest;whiteSpace=wrap;html=1;" parent="BgHXaJM5m16Xh9VHVzqE-11" vertex="1">&#xa;          <mxGeometry y="130" width="140" height="26" as="geometry"/>&#xa;        </mxCell>&#xa;        <mxCell id="BgHXaJM5m16Xh9VHVzqE-18" value="UserGroupMap" style="swimlane;fontStyle=0;childLayout=stackLayout;horizontal=1;startSize=26;fillColor=none;horizontalStack=0;resizeParent=1;resizeParentMax=0;resizeLast=0;collapsible=1;marginBottom=0;whiteSpace=wrap;html=1;" parent="1" vertex="1">&#xa;          <mxGeometry x="380" y="160" width="140" height="156" as="geometry"/>&#xa;        </mxCell>&#xa;        <mxCell id="BgHXaJM5m16Xh9VHVzqE-19" value="+ id: Long" style="text;strokeColor=none;fillColor=none;align=left;verticalAlign=top;spacingLeft=4;spacingRight=4;overflow=hidden;rotatable=0;points=[[0,0.5],[1,0.5]];portConstraint=eastwest;whiteSpace=wrap;html=1;" parent="BgHXaJM5m16Xh9VHVzqE-18" vertex="1">&#xa;          <mxGeometry y="26" width="140" height="26" as="geometry"/>&#xa;        </mxCell>&#xa;        <mxCell id="BgHXaJM5m16Xh9VHVzqE-20" value="+ user: UUID" style="text;strokeColor=none;fillColor=none;align=left;verticalAlign=top;spacingLeft=4;spacingRight=4;overflow=hidden;rotatable=0;points=[[0,0.5],[1,0.5]];portConstraint=eastwest;whiteSpace=wrap;html=1;" parent="BgHXaJM5m16Xh9VHVzqE-18" vertex="1">&#xa;          <mxGeometry y="52" width="140" height="26" as="geometry"/>&#xa;        </mxCell>&#xa;        <mxCell id="BgHXaJM5m16Xh9VHVzqE-21" value="+ group: Long" style="text;strokeColor=none;fillColor=none;align=left;verticalAlign=top;spacingLeft=4;spacingRight=4;overflow=hidden;rotatable=0;points=[[0,0.5],[1,0.5]];portConstraint=eastwest;whiteSpace=wrap;html=1;" parent="BgHXaJM5m16Xh9VHVzqE-18" vertex="1">&#xa;          <mxGeometry y="78" width="140" height="26" as="geometry"/>&#xa;        </mxCell>&#xa;        <mxCell id="BgHXaJM5m16Xh9VHVzqE-22" value="+ createdOn: instant" style="text;strokeColor=none;fillColor=none;align=left;verticalAlign=top;spacingLeft=4;spacingRight=4;overflow=hidden;rotatable=0;points=[[0,0.5],[1,0.5]];portConstraint=eastwest;whiteSpace=wrap;html=1;" parent="BgHXaJM5m16Xh9VHVzqE-18" vertex="1">&#xa;          <mxGeometry y="104" width="140" height="26" as="geometry"/>&#xa;        </mxCell>&#xa;        <mxCell id="BgHXaJM5m16Xh9VHVzqE-23" value="+ modifiedOn: Instant" style="text;strokeColor=none;fillColor=none;align=left;verticalAlign=top;spacingLeft=4;spacingRight=4;overflow=hidden;rotatable=0;points=[[0,0.5],[1,0.5]];portConstraint=eastwest;whiteSpace=wrap;html=1;" parent="BgHXaJM5m16Xh9VHVzqE-18" vertex="1">&#xa;          <mxGeometry y="130" width="140" height="26" as="geometry"/>&#xa;        </mxCell>&#xa;        <mxCell id="DbNmz8YzxhFVVKiYoSWi-1" value="UserOrganizationMap" style="swimlane;fontStyle=0;childLayout=stackLayout;horizontal=1;startSize=26;fillColor=none;horizontalStack=0;resizeParent=1;resizeParentMax=0;resizeLast=0;collapsible=1;marginBottom=0;whiteSpace=wrap;html=1;" parent="1" vertex="1">&#xa;          <mxGeometry x="380" y="380" width="150" height="156" as="geometry"/>&#xa;        </mxCell>&#xa;        <mxCell id="DbNmz8YzxhFVVKiYoSWi-2" value="+ id: Long" style="text;strokeColor=none;fillColor=none;align=left;verticalAlign=top;spacingLeft=4;spacingRight=4;overflow=hidden;rotatable=0;points=[[0,0.5],[1,0.5]];portConstraint=eastwest;whiteSpace=wrap;html=1;" parent="DbNmz8YzxhFVVKiYoSWi-1" vertex="1">&#xa;          <mxGeometry y="26" width="150" height="26" as="geometry"/>&#xa;        </mxCell>&#xa;        <mxCell id="DbNmz8YzxhFVVKiYoSWi-3" value="+ user: UUID" style="text;strokeColor=none;fillColor=none;align=left;verticalAlign=top;spacingLeft=4;spacingRight=4;overflow=hidden;rotatable=0;points=[[0,0.5],[1,0.5]];portConstraint=eastwest;whiteSpace=wrap;html=1;" parent="DbNmz8YzxhFVVKiYoSWi-1" vertex="1">&#xa;          <mxGeometry y="52" width="150" height="26" as="geometry"/>&#xa;        </mxCell>&#xa;        <mxCell id="DbNmz8YzxhFVVKiYoSWi-4" value="+ Organization: Long" style="text;strokeColor=none;fillColor=none;align=left;verticalAlign=top;spacingLeft=4;spacingRight=4;overflow=hidden;rotatable=0;points=[[0,0.5],[1,0.5]];portConstraint=eastwest;whiteSpace=wrap;html=1;" parent="DbNmz8YzxhFVVKiYoSWi-1" vertex="1">&#xa;          <mxGeometry y="78" width="150" height="26" as="geometry"/>&#xa;        </mxCell>&#xa;        <mxCell id="DbNmz8YzxhFVVKiYoSWi-5" value="+ createdOn: instant" style="text;strokeColor=none;fillColor=none;align=left;verticalAlign=top;spacingLeft=4;spacingRight=4;overflow=hidden;rotatable=0;points=[[0,0.5],[1,0.5]];portConstraint=eastwest;whiteSpace=wrap;html=1;" parent="DbNmz8YzxhFVVKiYoSWi-1" vertex="1">&#xa;          <mxGeometry y="104" width="150" height="26" as="geometry"/>&#xa;        </mxCell>&#xa;        <mxCell id="DbNmz8YzxhFVVKiYoSWi-6" value="+ modifiedOn: Instant" style="text;strokeColor=none;fillColor=none;align=left;verticalAlign=top;spacingLeft=4;spacingRight=4;overflow=hidden;rotatable=0;points=[[0,0.5],[1,0.5]];portConstraint=eastwest;whiteSpace=wrap;html=1;" parent="DbNmz8YzxhFVVKiYoSWi-1" vertex="1">&#xa;          <mxGeometry y="130" width="150" height="26" as="geometry"/>&#xa;        </mxCell>&#xa;        <mxCell id="DbNmz8YzxhFVVKiYoSWi-13" value="&lt;font style=&quot;font-size: 18px;&quot;&gt;&lt;b&gt;User_Svc&lt;/b&gt;&lt;/font&gt;" style="text;html=1;align=center;verticalAlign=middle;resizable=0;points=[];autosize=1;strokeColor=none;fillColor=none;" parent="1" vertex="1">&#xa;          <mxGeometry x="295" y="63" width="110" height="40" as="geometry"/>&#xa;        </mxCell>&#xa;        <mxCell id="jwSdZHBBSHRpZX_azysT-2" style="edgeStyle=orthogonalEdgeStyle;rounded=0;orthogonalLoop=1;jettySize=auto;html=1;entryX=1;entryY=0.5;entryDx=0;entryDy=0;" parent="1" source="BgHXaJM5m16Xh9VHVzqE-3" target="BgHXaJM5m16Xh9VHVzqE-21" edge="1">&#xa;          <mxGeometry relative="1" as="geometry"/>&#xa;        </mxCell>&#xa;        <mxCell id="jwSdZHBBSHRpZX_azysT-4" style="edgeStyle=orthogonalEdgeStyle;rounded=0;orthogonalLoop=1;jettySize=auto;html=1;entryX=1;entryY=0.5;entryDx=0;entryDy=0;" parent="1" source="BgHXaJM5m16Xh9VHVzqE-12" target="DbNmz8YzxhFVVKiYoSWi-4" edge="1">&#xa;          <mxGeometry relative="1" as="geometry"/>&#xa;        </mxCell>&#xa;        <mxCell id="TBrgbZqnVFvVAXqrrgGo-1" value="IdmInfo" style="swimlane;fontStyle=0;childLayout=stackLayout;horizontal=1;startSize=26;fillColor=none;horizontalStack=0;resizeParent=1;resizeParentMax=0;resizeLast=0;collapsible=1;marginBottom=0;whiteSpace=wrap;html=1;" parent="1" vertex="1">&#xa;          <mxGeometry x="130" y="604" width="140" height="182" as="geometry"/>&#xa;        </mxCell>&#xa;        <mxCell id="TBrgbZqnVFvVAXqrrgGo-2" value="+ id: Long" style="text;strokeColor=none;fillColor=none;align=left;verticalAlign=top;spacingLeft=4;spacingRight=4;overflow=hidden;rotatable=0;points=[[0,0.5],[1,0.5]];portConstraint=eastwest;whiteSpace=wrap;html=1;" parent="TBrgbZqnVFvVAXqrrgGo-1" vertex="1">&#xa;          <mxGeometry y="26" width="140" height="26" as="geometry"/>&#xa;        </mxCell>&#xa;        <mxCell id="TBrgbZqnVFvVAXqrrgGo-7" value="+ idmUniqueId: String" style="text;strokeColor=none;fillColor=none;align=left;verticalAlign=top;spacingLeft=4;spacingRight=4;overflow=hidden;rotatable=0;points=[[0,0.5],[1,0.5]];portConstraint=eastwest;whiteSpace=wrap;html=1;" parent="TBrgbZqnVFvVAXqrrgGo-1" vertex="1">&#xa;          <mxGeometry y="52" width="140" height="26" as="geometry"/>&#xa;        </mxCell>&#xa;        <mxCell id="TBrgbZqnVFvVAXqrrgGo-3" value="+ name: String" style="text;strokeColor=none;fillColor=none;align=left;verticalAlign=top;spacingLeft=4;spacingRight=4;overflow=hidden;rotatable=0;points=[[0,0.5],[1,0.5]];portConstraint=eastwest;whiteSpace=wrap;html=1;" parent="TBrgbZqnVFvVAXqrrgGo-1" vertex="1">&#xa;          <mxGeometry y="78" width="140" height="26" as="geometry"/>&#xa;        </mxCell>&#xa;        <mxCell id="TBrgbZqnVFvVAXqrrgGo-4" value="+ description: String" style="text;strokeColor=none;fillColor=none;align=left;verticalAlign=top;spacingLeft=4;spacingRight=4;overflow=hidden;rotatable=0;points=[[0,0.5],[1,0.5]];portConstraint=eastwest;whiteSpace=wrap;html=1;" parent="TBrgbZqnVFvVAXqrrgGo-1" vertex="1">&#xa;          <mxGeometry y="104" width="140" height="26" as="geometry"/>&#xa;        </mxCell>&#xa;        <mxCell id="TBrgbZqnVFvVAXqrrgGo-5" value="+ createdOn: instant" style="text;strokeColor=none;fillColor=none;align=left;verticalAlign=top;spacingLeft=4;spacingRight=4;overflow=hidden;rotatable=0;points=[[0,0.5],[1,0.5]];portConstraint=eastwest;whiteSpace=wrap;html=1;" parent="TBrgbZqnVFvVAXqrrgGo-1" vertex="1">&#xa;          <mxGeometry y="130" width="140" height="26" as="geometry"/>&#xa;        </mxCell>&#xa;        <mxCell id="TBrgbZqnVFvVAXqrrgGo-6" value="+ modifiedOn: Instant" style="text;strokeColor=none;fillColor=none;align=left;verticalAlign=top;spacingLeft=4;spacingRight=4;overflow=hidden;rotatable=0;points=[[0,0.5],[1,0.5]];portConstraint=eastwest;whiteSpace=wrap;html=1;" parent="TBrgbZqnVFvVAXqrrgGo-1" vertex="1">&#xa;          <mxGeometry y="156" width="140" height="26" as="geometry"/>&#xa;        </mxCell>&#xa;        <mxCell id="TBrgbZqnVFvVAXqrrgGo-9" value="Role" style="swimlane;fontStyle=0;childLayout=stackLayout;horizontal=1;startSize=26;fillColor=none;horizontalStack=0;resizeParent=1;resizeParentMax=0;resizeLast=0;collapsible=1;marginBottom=0;whiteSpace=wrap;html=1;" parent="1" vertex="1">&#xa;          <mxGeometry x="650" y="580" width="140" height="156" as="geometry"/>&#xa;        </mxCell>&#xa;        <mxCell id="TBrgbZqnVFvVAXqrrgGo-10" value="+ id: Long" style="text;strokeColor=none;fillColor=none;align=left;verticalAlign=top;spacingLeft=4;spacingRight=4;overflow=hidden;rotatable=0;points=[[0,0.5],[1,0.5]];portConstraint=eastwest;whiteSpace=wrap;html=1;" parent="TBrgbZqnVFvVAXqrrgGo-9" vertex="1">&#xa;          <mxGeometry y="26" width="140" height="26" as="geometry"/>&#xa;        </mxCell>&#xa;        <mxCell id="TBrgbZqnVFvVAXqrrgGo-11" value="+ name: String" style="text;strokeColor=none;fillColor=none;align=left;verticalAlign=top;spacingLeft=4;spacingRight=4;overflow=hidden;rotatable=0;points=[[0,0.5],[1,0.5]];portConstraint=eastwest;whiteSpace=wrap;html=1;" parent="TBrgbZqnVFvVAXqrrgGo-9" vertex="1">&#xa;          <mxGeometry y="52" width="140" height="26" as="geometry"/>&#xa;        </mxCell>&#xa;        <mxCell id="TBrgbZqnVFvVAXqrrgGo-12" value="+ description: String" style="text;strokeColor=none;fillColor=none;align=left;verticalAlign=top;spacingLeft=4;spacingRight=4;overflow=hidden;rotatable=0;points=[[0,0.5],[1,0.5]];portConstraint=eastwest;whiteSpace=wrap;html=1;" parent="TBrgbZqnVFvVAXqrrgGo-9" vertex="1">&#xa;          <mxGeometry y="78" width="140" height="26" as="geometry"/>&#xa;        </mxCell>&#xa;        <mxCell id="TBrgbZqnVFvVAXqrrgGo-13" value="+ createdOn: instant" style="text;strokeColor=none;fillColor=none;align=left;verticalAlign=top;spacingLeft=4;spacingRight=4;overflow=hidden;rotatable=0;points=[[0,0.5],[1,0.5]];portConstraint=eastwest;whiteSpace=wrap;html=1;" parent="TBrgbZqnVFvVAXqrrgGo-9" vertex="1">&#xa;          <mxGeometry y="104" width="140" height="26" as="geometry"/>&#xa;        </mxCell>&#xa;        <mxCell id="TBrgbZqnVFvVAXqrrgGo-14" value="+ modifiedOn: Instant" style="text;strokeColor=none;fillColor=none;align=left;verticalAlign=top;spacingLeft=4;spacingRight=4;overflow=hidden;rotatable=0;points=[[0,0.5],[1,0.5]];portConstraint=eastwest;whiteSpace=wrap;html=1;" parent="TBrgbZqnVFvVAXqrrgGo-9" vertex="1">&#xa;          <mxGeometry y="130" width="140" height="26" as="geometry"/>&#xa;        </mxCell>&#xa;        <mxCell id="TBrgbZqnVFvVAXqrrgGo-15" value="UserRoleMap" style="swimlane;fontStyle=0;childLayout=stackLayout;horizontal=1;startSize=26;fillColor=none;horizontalStack=0;resizeParent=1;resizeParentMax=0;resizeLast=0;collapsible=1;marginBottom=0;whiteSpace=wrap;html=1;" parent="1" vertex="1">&#xa;          <mxGeometry x="385" y="580" width="140" height="156" as="geometry"/>&#xa;        </mxCell>&#xa;        <mxCell id="TBrgbZqnVFvVAXqrrgGo-16" value="+ id: Long" style="text;strokeColor=none;fillColor=none;align=left;verticalAlign=top;spacingLeft=4;spacingRight=4;overflow=hidden;rotatable=0;points=[[0,0.5],[1,0.5]];portConstraint=eastwest;whiteSpace=wrap;html=1;" parent="TBrgbZqnVFvVAXqrrgGo-15" vertex="1">&#xa;          <mxGeometry y="26" width="140" height="26" as="geometry"/>&#xa;        </mxCell>&#xa;        <mxCell id="TBrgbZqnVFvVAXqrrgGo-17" value="+ user: UUID" style="text;strokeColor=none;fillColor=none;align=left;verticalAlign=top;spacingLeft=4;spacingRight=4;overflow=hidden;rotatable=0;points=[[0,0.5],[1,0.5]];portConstraint=eastwest;whiteSpace=wrap;html=1;" parent="TBrgbZqnVFvVAXqrrgGo-15" vertex="1">&#xa;          <mxGeometry y="52" width="140" height="26" as="geometry"/>&#xa;        </mxCell>&#xa;        <mxCell id="TBrgbZqnVFvVAXqrrgGo-18" value="+ role: Long" style="text;strokeColor=none;fillColor=none;align=left;verticalAlign=top;spacingLeft=4;spacingRight=4;overflow=hidden;rotatable=0;points=[[0,0.5],[1,0.5]];portConstraint=eastwest;whiteSpace=wrap;html=1;" parent="TBrgbZqnVFvVAXqrrgGo-15" vertex="1">&#xa;          <mxGeometry y="78" width="140" height="26" as="geometry"/>&#xa;        </mxCell>&#xa;        <mxCell id="TBrgbZqnVFvVAXqrrgGo-19" value="+ createdOn: instant" style="text;strokeColor=none;fillColor=none;align=left;verticalAlign=top;spacingLeft=4;spacingRight=4;overflow=hidden;rotatable=0;points=[[0,0.5],[1,0.5]];portConstraint=eastwest;whiteSpace=wrap;html=1;" parent="TBrgbZqnVFvVAXqrrgGo-15" vertex="1">&#xa;          <mxGeometry y="104" width="140" height="26" as="geometry"/>&#xa;        </mxCell>&#xa;        <mxCell id="TBrgbZqnVFvVAXqrrgGo-20" value="+ modifiedOn: Instant" style="text;strokeColor=none;fillColor=none;align=left;verticalAlign=top;spacingLeft=4;spacingRight=4;overflow=hidden;rotatable=0;points=[[0,0.5],[1,0.5]];portConstraint=eastwest;whiteSpace=wrap;html=1;" parent="TBrgbZqnVFvVAXqrrgGo-15" vertex="1">&#xa;          <mxGeometry y="130" width="140" height="26" as="geometry"/>&#xa;        </mxCell>&#xa;        <mxCell id="TBrgbZqnVFvVAXqrrgGo-21" style="edgeStyle=orthogonalEdgeStyle;rounded=0;orthogonalLoop=1;jettySize=auto;html=1;entryX=1;entryY=0.5;entryDx=0;entryDy=0;" parent="1" source="TBrgbZqnVFvVAXqrrgGo-10" target="TBrgbZqnVFvVAXqrrgGo-18" edge="1">&#xa;          <mxGeometry relative="1" as="geometry"/>&#xa;        </mxCell>&#xa;        <mxCell id="biaJ2RfBLmbrzt-ByHiE-2" style="edgeStyle=orthogonalEdgeStyle;rounded=0;orthogonalLoop=1;jettySize=auto;html=1;entryX=0;entryY=0.5;entryDx=0;entryDy=0;" parent="1" source="TBrgbZqnVFvVAXqrrgGo-2" target="UqrGT-jKJ6F6nwKbvBD5-2" edge="1">&#xa;          <mxGeometry relative="1" as="geometry"/>&#xa;        </mxCell>&#xa;        <mxCell id="biaJ2RfBLmbrzt-ByHiE-3" style="edgeStyle=orthogonalEdgeStyle;rounded=0;orthogonalLoop=1;jettySize=auto;html=1;entryX=0;entryY=0.5;entryDx=0;entryDy=0;" parent="1" source="biaJ2RfBLmbrzt-ByHiE-1" target="BgHXaJM5m16Xh9VHVzqE-20" edge="1">&#xa;          <mxGeometry relative="1" as="geometry"/>&#xa;        </mxCell>&#xa;        <mxCell id="biaJ2RfBLmbrzt-ByHiE-4" style="edgeStyle=orthogonalEdgeStyle;rounded=0;orthogonalLoop=1;jettySize=auto;html=1;entryX=0;entryY=0.5;entryDx=0;entryDy=0;" parent="1" source="biaJ2RfBLmbrzt-ByHiE-1" target="DbNmz8YzxhFVVKiYoSWi-3" edge="1">&#xa;          <mxGeometry relative="1" as="geometry">&#xa;            <Array as="points">&#xa;              <mxPoint x="340" y="225"/>&#xa;              <mxPoint x="340" y="445"/>&#xa;            </Array>&#xa;          </mxGeometry>&#xa;        </mxCell>&#xa;        <mxCell id="biaJ2RfBLmbrzt-ByHiE-5" style="edgeStyle=orthogonalEdgeStyle;rounded=0;orthogonalLoop=1;jettySize=auto;html=1;entryX=0;entryY=0.5;entryDx=0;entryDy=0;" parent="1" source="biaJ2RfBLmbrzt-ByHiE-1" target="TBrgbZqnVFvVAXqrrgGo-17" edge="1">&#xa;          <mxGeometry relative="1" as="geometry">&#xa;            <Array as="points">&#xa;              <mxPoint x="320" y="225"/>&#xa;              <mxPoint x="320" y="645"/>&#xa;            </Array>&#xa;          </mxGeometry>&#xa;        </mxCell>&#xa;      </root>&#xa;    </mxGraphModel>&#xa;  </diagram></mxfile>